<svg width="80" height="9" viewBox="0 0 80 9" fill="none" xmlns="http://www.w3.org/2000/svg">
<g clip-path="url(#clip0)">
<path d="M66.149 4.68409L69.3702 0.914318L80 4.68409L69.3702 8.45386L66.149 4.68409ZM69.4208 1.14545L66.3972 4.68409L69.4208 8.22273L79.397 4.68409L69.4208 1.14545Z" fill="white"/>
<path d="M79.6992 4.55932V4.35477L0.00158691 4.35477V4.55932L79.6992 4.55932Z" fill="white"/>
<path d="M50.1465 5.95841C50.2272 4.96017 50.2231 3.95502 50.1343 2.95773C50.1343 2.93874 50.1278 2.92053 50.1163 2.90711C50.1049 2.89368 50.0893 2.88614 50.0731 2.88614C50.0569 2.88614 50.0413 2.89368 50.0298 2.90711C50.0184 2.92053 50.0119 2.93874 50.0119 2.95773C49.9222 3.95497 49.9181 4.96022 49.9997 5.95841C49.9997 5.9812 50.0074 6.00305 50.0212 6.01916C50.0349 6.03527 50.0536 6.04432 50.0731 6.04432C50.0926 6.04432 50.1112 6.03527 50.125 6.01916C50.1388 6.00305 50.1465 5.9812 50.1465 5.95841V5.95841Z" fill="white"/>
<path d="M27.3245 5.34477C27.335 4.79864 27.3612 4.25455 27.3682 3.70841C27.3649 3.67937 27.3527 3.6527 27.3339 3.63338C27.3151 3.61406 27.291 3.6034 27.2659 3.6034C27.2409 3.6034 27.2167 3.61406 27.1979 3.63338C27.1791 3.6527 27.1669 3.67937 27.1637 3.70841C27.1637 4.25455 27.1969 4.79864 27.2074 5.34477C27.2098 5.36092 27.217 5.37555 27.2277 5.3861C27.2384 5.39665 27.2519 5.40243 27.2659 5.40243C27.2799 5.40243 27.2935 5.39665 27.3042 5.3861C27.3149 5.37555 27.3221 5.36092 27.3245 5.34477Z" fill="white"/>
<path d="M16.4292 4.38955C16.4292 5.29328 17.0552 6.02591 17.8274 6.02591C18.5996 6.02591 19.2256 5.29328 19.2256 4.38955C19.2256 3.48581 18.5996 2.75318 17.8274 2.75318C17.0552 2.75318 16.4292 3.48581 16.4292 4.38955Z" fill="white"/>
<path d="M20.7404 3.43432C20.579 3.43432 20.4212 3.49034 20.287 3.5953C20.1528 3.70026 20.0481 3.84945 19.9864 4.024C19.9246 4.19854 19.9084 4.3906 19.9399 4.5759C19.9714 4.7612 20.0491 4.9314 20.1633 5.06499C20.2774 5.19858 20.4229 5.28956 20.5812 5.32642C20.7395 5.36327 20.9036 5.34436 21.0528 5.27206C21.2019 5.19976 21.3294 5.07733 21.4191 4.92024C21.5088 4.76315 21.5566 4.57847 21.5566 4.38954C21.5566 4.1362 21.4707 3.89324 21.3176 3.7141C21.1645 3.53496 20.9569 3.43432 20.7404 3.43432V3.43432Z" fill="white"/>
<path d="M48.0481 3.43432C47.8866 3.43432 47.7288 3.49034 47.5946 3.5953C47.4604 3.70027 47.3558 3.84945 47.294 4.024C47.2322 4.19854 47.216 4.39061 47.2475 4.5759C47.279 4.7612 47.3568 4.9314 47.4709 5.06499C47.5851 5.19859 47.7305 5.28956 47.8888 5.32642C48.0471 5.36328 48.2113 5.34436 48.3604 5.27206C48.5095 5.19976 48.637 5.07733 48.7267 4.92024C48.8164 4.76316 48.8643 4.57847 48.8643 4.38955C48.8645 4.26403 48.8435 4.13969 48.8026 4.02368C48.7617 3.90766 48.7015 3.80225 48.6257 3.7135C48.5499 3.62474 48.4598 3.55439 48.3607 3.50648C48.2615 3.45857 48.1553 3.43405 48.0481 3.43432Z" fill="white"/>
<path d="M58.952 4.39773L60.8867 2.13136L62.8232 4.39773L60.8867 6.66409L58.952 4.39773ZM60.8867 2.41977L59.2019 4.39773L60.8902 6.37364L62.5768 4.39773L60.8867 2.41977Z" fill="white"/>
<path d="M57.7281 4.39773L59.2556 2.60795L60.7744 4.39773L59.2469 6.18545L57.7281 4.39773ZM59.2556 2.89841L57.978 4.39773L59.2591 5.89705L60.5402 4.39773L59.2556 2.89841Z" fill="white"/>
<path d="M51.4361 4.39773L52.9636 2.60795L54.4824 4.39773L52.9549 6.18545L51.4361 4.39773ZM52.9636 2.89841L51.686 4.39773L52.9671 5.89705L54.2482 4.39773L52.9636 2.89841Z" fill="white"/>
<path d="M63.5535 4.39773L65.0811 2.60795L66.6104 4.39773L65.0811 6.18545L63.5535 4.39773ZM65.0811 2.89841L63.8 4.39773L65.0811 5.89705L66.3674 4.39773L65.0811 2.89841Z" fill="white"/>
<path d="M55.5723 4.39773L57.5088 2.13136L59.4453 4.39773L57.5088 6.66409L55.5723 4.39773ZM57.5088 2.41977L55.8205 4.39773L57.5088 6.37364L59.2024 4.39773L57.5088 2.41977Z" fill="white"/>
<path d="M32.7418 4.32251L30.0625 1.18681L29.9389 1.33144L32.6182 4.46714L32.7418 4.32251Z" fill="white"/>
<path d="M35.4235 4.32251L32.7441 1.18681L32.6206 1.33145L35.2999 4.46715L35.4235 4.32251Z" fill="white"/>
<path d="M32.7476 4.60842L32.624 4.46378L29.9447 7.59948L30.0683 7.74412L32.7476 4.60842Z" fill="white"/>
<path d="M35.4263 4.60843L35.3027 4.46379L32.6234 7.59949L32.747 7.74412L35.4263 4.60843Z" fill="white"/>
<path d="M0.349594 0V2.04545L2.6811 4.09091L5.70996 4.09091L0.349594 0Z" fill="white"/>
<path d="M0.349594 9L0.349594 6.95454L2.6811 4.90909L5.70996 4.90909L0.349594 9Z" fill="white"/>
<path d="M37.3026 4.41614L43.1785 1.94727L45.2881 4.41614L43.1785 6.885L37.3026 4.41614ZM43.1331 2.18455L37.8199 4.41614L43.1331 6.64773L45.0451 4.41614L43.1331 2.18455Z" fill="white"/>
</g>
<defs>
<clipPath id="clip0">
<rect width="9" height="80" fill="white" transform="translate(80) rotate(90)"/>
</clipPath>
</defs>
</svg>
