<svg width="57" height="6" viewBox="0 0 57 6" fill="none" xmlns="http://www.w3.org/2000/svg">
<g clip-path="url(#clip0)">
<path d="M55.7969 2.76321L0.146853 2.76321C0.113702 2.76321 0.0819112 2.77639 0.0584702 2.79983C0.0350292 2.82328 0.0218583 2.85508 0.0218583 2.88824C0.0218583 2.9214 0.0350292 2.9532 0.0584702 2.97665C0.0819112 3.0001 0.113702 3.01327 0.146853 3.01327L55.7969 3.01327V2.76321Z" fill="#101010"/>
<path d="M10.792 1.65437C11.202 2.06571 11.4757 2.59207 11.9507 2.93715C12.0619 3.01716 12.1669 2.83462 12.0569 2.75586C11.5945 2.41828 11.3357 1.88067 10.8745 1.54809C10.8107 1.50308 10.7395 1.60185 10.792 1.65437V1.65437Z" fill="#101010"/>
<path d="M9.29611 1.46787C9.38485 1.79044 9.62859 2.08176 9.82233 2.34306C9.94733 2.51185 10.1973 2.95695 10.4273 2.93944C10.4431 2.93912 10.4582 2.9327 10.4694 2.92151C10.4806 2.91033 10.487 2.89525 10.4873 2.87943C10.4873 2.77066 10.4311 2.7369 10.3623 2.66063C10.2486 2.54311 10.1436 2.41683 10.0398 2.28555C9.80984 2.00799 9.63234 1.66666 9.37486 1.41036C9.3681 1.4032 9.35913 1.39853 9.34939 1.3971C9.33966 1.39567 9.32973 1.39757 9.3212 1.40248C9.31267 1.4074 9.30605 1.41504 9.30241 1.42419C9.29876 1.43333 9.2983 1.44343 9.30111 1.45287L9.29611 1.46787Z" fill="#101010"/>
<path d="M10.8744 4.16339C11.3357 3.82832 11.5944 3.2882 12.0569 2.95563C12.1669 2.87686 12.0569 2.69432 11.9506 2.77434C11.4757 3.11941 11.2007 3.64953 10.7919 4.05712C10.7394 4.10963 10.8107 4.2084 10.8744 4.16339Z" fill="#101010"/>
<path d="M9.36985 4.28615C9.60609 4.0561 9.77484 3.74353 9.97858 3.48472C10.0823 3.35219 10.1936 3.22591 10.3061 3.10089C10.3873 3.00962 10.4873 2.95585 10.4873 2.82833C10.487 2.81239 10.4806 2.79717 10.4695 2.78578C10.4583 2.77439 10.4432 2.7677 10.4273 2.76706C10.2061 2.75081 9.99483 3.14215 9.87483 3.29343C9.66109 3.57349 9.3911 3.89731 9.29611 4.24364C9.2933 4.25307 9.29376 4.26318 9.2974 4.27232C9.30105 4.28146 9.30767 4.28911 9.3162 4.29402C9.32472 4.29894 9.33466 4.30083 9.34439 4.2994C9.35413 4.29798 9.3631 4.2933 9.36985 4.28615V4.28615Z" fill="#101010"/>
<path d="M41.2268 1.60528C41.9118 2.24042 42.7693 2.81555 43.7055 2.98058C43.7317 2.98481 43.7585 2.97919 43.7808 2.96482C43.8031 2.95044 43.8193 2.92832 43.8263 2.90272C43.8333 2.87712 43.8305 2.84984 43.8186 2.82613C43.8067 2.80241 43.7864 2.78395 43.7617 2.77429C42.8727 2.51958 42.0444 2.08747 41.3268 1.50401C41.2581 1.44775 41.1593 1.54027 41.2268 1.60278V1.60528Z" fill="#101010"/>
<path d="M41.2358 1.55678C40.7946 1.79684 40.3496 2.02689 39.8921 2.23443C39.4571 2.42948 38.9209 2.54825 38.5347 2.83081C38.4934 2.86082 38.5022 2.94084 38.5647 2.93709C38.9959 2.90958 39.4271 2.66453 39.8146 2.48824C40.3322 2.26067 40.8305 1.99139 41.3045 1.68306C41.3176 1.67176 41.3263 1.65624 41.3291 1.63918C41.3319 1.62213 41.3286 1.60463 41.3198 1.58975C41.3111 1.57486 41.2973 1.56354 41.2811 1.55774C41.2648 1.55194 41.247 1.55205 41.2308 1.55803L41.2358 1.55678Z" fill="#101010"/>
<path d="M38.8537 1.58666C39.4899 2.15053 40.2211 2.57438 40.9698 2.97321C41.0948 3.03948 41.2023 2.84819 41.0798 2.78567C40.3486 2.37558 39.5962 2.0005 38.9049 1.51914C38.8649 1.49164 38.8174 1.55415 38.8537 1.58666V1.58666Z" fill="#101010"/>
<path d="M38.7889 1.5666C38.2972 1.83692 37.7872 2.07255 37.2627 2.27176C36.8315 2.43179 36.3415 2.52181 35.9515 2.75937C35.9381 2.76632 35.9274 2.77767 35.9213 2.79151C35.9152 2.80536 35.9141 2.82088 35.918 2.83548C35.922 2.85009 35.9308 2.86291 35.943 2.8718C35.9552 2.8807 35.9701 2.88514 35.9853 2.88439C36.499 2.85939 37.029 2.61058 37.5039 2.42304C37.992 2.23919 38.4496 1.98293 38.8614 1.66287C38.9176 1.61786 38.8464 1.53785 38.7864 1.5666H38.7889Z" fill="#101010"/>
<path d="M36.2747 1.78786C37.0097 2.28797 37.8997 2.59304 38.7021 2.97312C38.8271 3.03314 38.9371 2.8481 38.8121 2.78558C38.0067 2.36203 37.1711 1.99846 36.3122 1.69784C36.256 1.67784 36.2285 1.75786 36.2735 1.78786H36.2747Z" fill="#101010"/>
<path d="M36.2721 1.69782C35.3084 2.2617 34.3472 2.55301 33.2535 2.7368C33.161 2.75306 33.1848 2.89934 33.276 2.89809C34.296 2.89809 35.5609 2.45049 36.3384 1.78409C36.3859 1.74283 36.3246 1.66782 36.2721 1.69782Z" fill="#101010"/>
<path d="M41.3268 4.28456C42.0444 3.70109 42.8727 3.26898 43.7617 3.01428C43.7864 3.00461 43.8067 2.98615 43.8186 2.96244C43.8305 2.93873 43.8333 2.91145 43.8263 2.88584C43.8193 2.86024 43.8031 2.83812 43.7808 2.82375C43.7585 2.80937 43.7317 2.80376 43.7055 2.80798C42.7693 2.97427 41.9118 3.54939 41.2268 4.18328C41.1593 4.2458 41.2581 4.33957 41.3268 4.2833V4.28456Z" fill="#101010"/>
<path d="M41.3132 4.10858C40.8376 3.80291 40.3395 3.53375 39.8232 3.3034C39.4345 3.12336 38.997 2.88206 38.5733 2.85455C38.5108 2.85455 38.502 2.92957 38.5433 2.96083C38.9283 3.24089 39.467 3.36842 39.9007 3.55721C40.3607 3.7585 40.7982 4.00106 41.2357 4.23486C41.2519 4.24084 41.2697 4.24095 41.2859 4.23515C41.3022 4.22935 41.316 4.21803 41.3247 4.20314C41.3335 4.18826 41.3368 4.17076 41.334 4.15371C41.3312 4.13665 41.3225 4.12113 41.3094 4.10983L41.3132 4.10858Z" fill="#101010"/>
<path d="M38.9051 4.27108C39.5963 3.79597 40.3487 3.41339 41.08 3.00455C41.205 2.93703 41.0937 2.75449 40.97 2.81701C40.22 3.21709 39.49 3.64094 38.8538 4.20481C38.8176 4.23607 38.8651 4.29858 38.9051 4.27108Z" fill="#101010"/>
<path d="M38.8614 4.12611C38.5021 3.84292 38.1038 3.61301 37.6789 3.44346C37.1565 3.22466 36.554 2.9346 35.9828 2.90584C35.9676 2.90509 35.9527 2.90953 35.9405 2.91843C35.9283 2.92733 35.9195 2.94015 35.9155 2.95475C35.9116 2.96936 35.9127 2.98488 35.9188 2.99872C35.9249 3.01257 35.9356 3.02391 35.949 3.03087C36.339 3.27342 36.824 3.36344 37.2602 3.51848C37.7856 3.71606 38.2957 3.95217 38.7864 4.22488C38.8464 4.25614 38.9176 4.17362 38.8614 4.12861V4.12611Z" fill="#101010"/>
<path d="M36.3142 4.09344C37.1731 3.79239 38.0087 3.42841 38.8141 3.00445C38.9391 2.94068 38.8291 2.75439 38.7041 2.81691C37.9041 3.19199 37.0117 3.50581 36.2767 4.00217C36.2317 4.03217 36.2592 4.11219 36.3155 4.09344H36.3142Z" fill="#101010"/>
<path d="M36.3384 4.00736C35.5609 3.34097 34.296 2.89712 33.276 2.89212C33.1848 2.89212 33.161 3.03715 33.2535 3.05341C34.3472 3.23845 35.3084 3.52976 36.2721 4.09238C36.3246 4.12239 36.3859 4.04862 36.3384 4.00736Z" fill="#101010"/>
<path d="M16.1496 2.00046C15.971 2.00021 15.7964 2.05294 15.6479 2.15198C15.4993 2.25102 15.3834 2.39192 15.3149 2.55684C15.2464 2.72177 15.2284 2.90331 15.263 3.0785C15.2977 3.25369 15.3836 3.41465 15.5097 3.54102C15.6359 3.66739 15.7967 3.75348 15.9718 3.78842C16.1469 3.82335 16.3284 3.80555 16.4934 3.73726C16.6584 3.66897 16.7994 3.55327 16.8986 3.4048C16.9978 3.25632 17.0508 3.08175 17.0508 2.90316C17.0505 2.66406 16.9554 2.43484 16.7865 2.26566C16.6176 2.09648 16.3886 2.00112 16.1496 2.00046Z" fill="#101010"/>
<path d="M29.3029 2.86453C29.3029 2.67115 29.3602 2.48212 29.4676 2.32134C29.575 2.16055 29.7277 2.03524 29.9063 1.96123C30.0849 1.88723 30.2814 1.86787 30.471 1.9056C30.6607 1.94332 30.8348 2.03644 30.9715 2.17318C31.1082 2.30991 31.2013 2.48412 31.239 2.67378C31.2767 2.86344 31.2574 3.06003 31.1834 3.23868C31.1094 3.41733 30.9841 3.57003 30.8234 3.67747C30.6627 3.7849 30.4737 3.84224 30.2804 3.84224C30.0212 3.84191 29.7728 3.73879 29.5896 3.55551C29.4063 3.37222 29.3032 3.12373 29.3029 2.86453V2.86453ZM31.1078 2.86453C31.1078 2.70083 31.0593 2.5408 30.9684 2.40469C30.8774 2.26858 30.7482 2.16249 30.597 2.09985C30.4458 2.0372 30.2794 2.02081 30.1189 2.05275C29.9584 2.08468 29.811 2.16351 29.6952 2.27927C29.5795 2.39502 29.5007 2.5425 29.4688 2.70305C29.4369 2.86361 29.4532 3.03003 29.5159 3.18127C29.5785 3.3325 29.6846 3.46177 29.8206 3.55272C29.9567 3.64366 30.1167 3.69221 30.2804 3.69221C30.3893 3.69254 30.4972 3.67138 30.598 3.62995C30.6987 3.58851 30.7903 3.52762 30.8675 3.45075C30.9447 3.37387 31.006 3.28253 31.0479 3.18194C31.0898 3.08135 31.1114 2.97349 31.1116 2.86453H31.1078Z" fill="#101010"/>
<path d="M0.106545 0.056328C1.35115 1.1397 2.70943 2.085 4.15761 2.8757C4.23261 2.91696 4.29886 2.80318 4.22386 2.76192C2.78171 1.97855 1.41874 1.05739 0.15404 0.0113181C0.121542 -0.0161879 0.0740469 0.0300722 0.106545 0.0588286V0.056328Z" fill="#101010"/>
<path d="M0.558857 1.48422C1.07884 2.00559 1.74505 2.34066 2.27128 2.85953C2.32253 2.90954 2.40253 2.83077 2.35003 2.78076C1.8163 2.2719 1.14383 1.94432 0.600104 1.44296C0.593787 1.43815 0.585924 1.43581 0.578003 1.4364C0.570081 1.43699 0.56265 1.44045 0.55711 1.44615C0.551571 1.45184 0.548309 1.45937 0.54794 1.46731C0.547571 1.47524 0.550121 1.48304 0.555108 1.48922L0.558857 1.48422Z" fill="#101010"/>
<path d="M0.15404 5.6726C1.41877 4.62657 2.78173 3.70541 4.22386 2.92199C4.29886 2.88073 4.23261 2.76696 4.15761 2.80822C2.70924 3.59812 1.35092 4.54304 0.106545 5.62634C0.0740469 5.65509 0.121542 5.70135 0.15404 5.67385V5.6726Z" fill="#101010"/>
<path d="M0.604014 4.24202C1.14399 3.74191 1.81646 3.41433 2.35394 2.90422C2.40643 2.85421 2.32644 2.77919 2.27519 2.82545C1.74896 3.33932 1.08274 3.67439 0.562767 4.20076C0.557781 4.20694 0.555231 4.21474 0.5556 4.22268C0.555969 4.23061 0.559231 4.23814 0.56477 4.24383C0.570309 4.24953 0.577741 4.253 0.585662 4.25358C0.593584 4.25417 0.601446 4.25183 0.607764 4.24702L0.604014 4.24202Z" fill="#101010"/>
<path d="M46.3295 2.93441L48.6332 0.625153L56.2354 2.93441L48.6332 5.23867L46.3295 2.93441ZM48.6694 0.771435L46.507 2.93441L48.6694 5.09739L55.8041 2.93441L48.6694 0.771435Z" fill="#101010"/>
<path d="M21.247 2.84926L22.6319 1.46521L24.0156 2.84926L22.6319 4.23457L21.247 2.84926ZM22.6319 1.6415L21.4232 2.84926L22.6319 4.05828L23.8394 2.84926L22.6319 1.6415Z" fill="#101010"/>
<path d="M20.3715 2.84942L21.4639 1.75668L22.5576 2.84942L21.4639 3.94342L20.3715 2.84942ZM21.4639 1.93297L20.5477 2.84942L21.4639 3.76588L22.3801 2.84942L21.4639 1.93297Z" fill="#101010"/>
<path d="M18.831 2.84926L20.2147 1.46521L21.5996 2.84926L20.2147 4.23457L18.831 2.84926ZM20.2147 1.6415L19.0072 2.84926L20.2147 4.05828L21.4234 2.84926L20.2147 1.6415Z" fill="#101010"/>
<path d="M50.3681 2.95917C49.7681 3.22923 49.2194 3.78811 48.8232 4.30322C48.8107 4.32072 48.8369 4.33948 48.8519 4.32572C49.3519 3.85687 49.7731 3.32551 50.3918 2.99918C50.4193 2.98543 50.3918 2.94667 50.3681 2.95917Z" fill="#101010"/>
<path d="M49.0369 1.40175C49.386 1.96875 49.8019 2.49178 50.2756 2.95959C50.3031 2.98835 50.3469 2.94459 50.3194 2.91583C49.8477 2.45174 49.4247 1.94064 49.0569 1.3905C49.0494 1.37799 49.0294 1.3905 49.0369 1.40175Z" fill="#101010"/>
<path d="M49.7861 1.57422C50.1811 2.02306 50.5436 2.52943 51.026 2.89076C51.0698 2.92451 51.1123 2.85075 51.0685 2.81824C50.5873 2.45441 50.2161 1.99181 49.8098 1.55046C49.7948 1.53421 49.7711 1.55796 49.7861 1.57422V1.57422Z" fill="#101010"/>
<path d="M51.1669 2.95923C50.8811 3.07387 50.6186 3.23951 50.392 3.44809C50.1128 3.65845 49.8751 3.91873 49.6908 4.21576C49.6861 4.22172 49.684 4.22929 49.685 4.2368C49.6859 4.2443 49.6898 4.25112 49.6958 4.25576C49.7017 4.26041 49.7093 4.26249 49.7168 4.26155C49.7243 4.26061 49.7311 4.25673 49.7358 4.25076C49.9607 4.03947 50.1457 3.78816 50.3745 3.57686C50.6269 3.36225 50.897 3.16943 51.1819 3.00049C51.2007 2.98798 51.1894 2.95548 51.1669 2.96298V2.95923Z" fill="#101010"/>
<path d="M50.7356 1.6966C50.8706 1.93282 51.028 2.15555 51.2056 2.36174C51.3706 2.54928 51.6156 2.82059 51.868 2.87936C51.8736 2.88068 51.8794 2.88017 51.8846 2.87791C51.8898 2.87566 51.8941 2.87178 51.8969 2.86685C51.8997 2.86192 51.9009 2.85621 51.9002 2.85057C51.8995 2.84494 51.897 2.83968 51.893 2.8356C51.7243 2.65931 51.4956 2.53553 51.3168 2.36049C51.1081 2.15477 50.9232 1.9262 50.7656 1.67909C50.763 1.6757 50.7593 1.67337 50.7551 1.67254C50.7509 1.67172 50.7465 1.67245 50.7429 1.6746C50.7392 1.67675 50.7364 1.68017 50.7351 1.68422C50.7337 1.68827 50.7339 1.69267 50.7356 1.6966V1.6966Z" fill="#101010"/>
<path d="M50.7353 3.9159C51.0903 3.57083 51.4278 3.17949 51.8603 2.92944C51.8676 2.92364 51.8726 2.91539 51.8743 2.90621C51.8761 2.89702 51.8744 2.88752 51.8697 2.87945C51.865 2.87138 51.8575 2.86529 51.8487 2.8623C51.8398 2.85931 51.8302 2.85962 51.8215 2.86317C51.3853 3.11948 51.0441 3.51581 50.6966 3.87714C50.6921 3.88241 50.6898 3.88916 50.6901 3.89604C50.6904 3.90292 50.6933 3.90945 50.6982 3.91432C50.703 3.91919 50.7095 3.92206 50.7164 3.92235C50.7233 3.92264 50.73 3.92034 50.7353 3.9159Z" fill="#101010"/>
<path d="M51.6517 1.90776C51.7785 2.11995 51.9268 2.31853 52.0942 2.50039C52.2473 2.6887 52.4237 2.85676 52.6192 3.0005C52.6234 3.00251 52.6281 3.00316 52.6327 3.00237C52.6373 3.00159 52.6415 2.9994 52.6448 2.99611C52.6481 2.99281 52.6503 2.98858 52.651 2.984C52.6518 2.97941 52.6512 2.97469 52.6492 2.97049C52.5142 2.79886 52.3622 2.64135 52.1954 2.50039C52.0087 2.31345 51.8412 2.1082 51.6955 1.88775C51.6918 1.88371 51.6868 1.88107 51.6814 1.88026C51.676 1.87946 51.6705 1.88054 51.6658 1.88333C51.6611 1.88612 51.6575 1.89045 51.6556 1.89558C51.6537 1.90072 51.6537 1.90634 51.6555 1.91151L51.6517 1.90776Z" fill="#101010"/>
<path d="M51.6108 3.82603C51.7467 3.63534 51.9049 3.46157 52.082 3.30842C52.249 3.1849 52.4096 3.05304 52.5632 2.91333C52.5669 2.90928 52.569 2.90408 52.5693 2.89863C52.5696 2.89318 52.568 2.8878 52.5647 2.8834C52.5615 2.87899 52.5569 2.87584 52.5516 2.87446C52.5463 2.87308 52.5407 2.87356 52.5357 2.87583C52.3529 2.98317 52.1848 3.11388 52.0358 3.26466C51.8569 3.42346 51.6983 3.60359 51.5633 3.80103C51.5458 3.82728 51.5883 3.85229 51.607 3.82603H51.6108Z" fill="#101010"/>
<path d="M52.4552 2.06806C52.5577 2.21434 52.6689 2.35562 52.7814 2.49441C52.8939 2.63319 53.0314 2.83073 53.2026 2.9145C53.2201 2.92325 53.2451 2.9045 53.2314 2.88574C53.1167 2.74895 52.9926 2.62028 52.8601 2.50066C52.7289 2.35437 52.6102 2.19934 52.4664 2.06181C52.4646 2.06042 52.4624 2.05968 52.4601 2.05972C52.4578 2.05977 52.4556 2.06058 52.4539 2.06204C52.4522 2.0635 52.451 2.06551 52.4505 2.06774C52.45 2.06997 52.4504 2.07229 52.4514 2.07431L52.4552 2.06806Z" fill="#101010"/>
<path d="M52.4341 3.70968C52.5858 3.61132 52.7285 3.4996 52.8603 3.37586C53.0178 3.23207 53.2128 3.10705 53.3528 2.95076C53.3554 2.94762 53.357 2.94375 53.3573 2.93967C53.3577 2.9356 53.3568 2.93152 53.3547 2.92798C53.3527 2.92443 53.3496 2.9216 53.3459 2.91987C53.3422 2.91813 53.3381 2.91757 53.3341 2.91825C53.186 2.9867 53.0536 3.08503 52.9453 3.20707C52.7791 3.37324 52.6003 3.52623 52.4103 3.66467C52.3828 3.68342 52.4103 3.72593 52.4353 3.70843L52.4341 3.70968Z" fill="#101010"/>
<path d="M53.2452 2.2869C53.5101 2.45693 53.7876 2.83452 54.1301 2.83452C54.1349 2.83452 54.1395 2.83293 54.1432 2.83001C54.1469 2.8271 54.1496 2.82302 54.1507 2.81842C54.1519 2.81382 54.1515 2.80897 54.1495 2.80464C54.1476 2.8003 54.1443 2.79674 54.1401 2.79451C53.987 2.72679 53.8388 2.64867 53.6964 2.56071C53.559 2.4482 53.4146 2.34463 53.2639 2.25064C53.2599 2.24939 53.2556 2.24952 53.2516 2.25101C53.2477 2.25251 53.2444 2.25529 53.2422 2.25889C53.2401 2.2625 53.2392 2.26673 53.2397 2.2709C53.2402 2.27507 53.2422 2.27894 53.2452 2.28189V2.2869Z" fill="#101010"/>
<path d="M53.5147 3.45428C53.6397 3.35801 53.7647 3.25173 53.8897 3.14921C54.0147 3.04669 54.1909 2.94917 54.3146 2.82664C54.3181 2.82355 54.3204 2.81936 54.3211 2.81479C54.3218 2.81021 54.3209 2.80554 54.3185 2.80155C54.3161 2.79757 54.3125 2.79453 54.3081 2.79295C54.3038 2.79137 54.299 2.79135 54.2946 2.79288C54.1583 2.84972 54.034 2.93204 53.9284 3.03544C53.7772 3.16046 53.6347 3.28549 53.4947 3.42427C53.4797 3.43928 53.5009 3.46678 53.5172 3.45428H53.5147Z" fill="#101010"/>
<path d="M48.3605 1.65887C48.5842 2.13022 48.9854 2.78412 49.4992 2.96666C49.5056 2.96866 49.5125 2.96845 49.5188 2.96605C49.5251 2.96366 49.5304 2.95922 49.5338 2.95345C49.5373 2.94768 49.5387 2.94091 49.5378 2.93424C49.537 2.92757 49.5339 2.92137 49.5291 2.91664C49.3267 2.7266 49.0967 2.58157 48.9042 2.37277C48.7099 2.14592 48.5421 1.89759 48.4042 1.63261C48.3879 1.60261 48.3442 1.63261 48.3592 1.65887H48.3605Z" fill="#101010"/>
<path d="M48.2771 3.83467C48.4956 3.63283 48.7283 3.44689 48.9733 3.2783C49.1746 3.14202 49.412 3.05825 49.5983 2.91072C49.6158 2.89697 49.5983 2.87446 49.5783 2.87696C49.3145 2.91822 49.0646 3.10576 48.8483 3.25204C48.6216 3.40865 48.4121 3.58886 48.2233 3.78966C48.1958 3.81717 48.2371 3.85843 48.2658 3.83217L48.2771 3.83467Z" fill="#101010"/>
<path d="M47.7353 2.03435C47.8596 2.24339 48.0018 2.44126 48.1603 2.62573C48.2853 2.76576 48.5153 2.9633 48.719 2.92204C48.7234 2.92101 48.7274 2.91869 48.7304 2.91539C48.7334 2.91209 48.7354 2.90796 48.7361 2.90352C48.7367 2.89909 48.7361 2.89456 48.7342 2.89051C48.7322 2.88645 48.7291 2.88307 48.7253 2.88079C48.6362 2.83222 48.5444 2.7888 48.4503 2.75076C48.3523 2.68941 48.2639 2.614 48.1878 2.52696C48.0366 2.36692 47.9166 2.17688 47.7741 2.00809C47.7541 1.98434 47.7153 2.01559 47.7316 2.0406L47.7353 2.03435Z" fill="#101010"/>
<path d="M47.522 3.63371C47.7008 3.50868 47.8633 3.36115 48.0383 3.23112C48.2157 3.12088 48.4042 3.02953 48.6007 2.95856C48.605 2.95675 48.6087 2.9537 48.6113 2.94981C48.6139 2.94592 48.6152 2.94135 48.6152 2.93668C48.6152 2.93201 48.6139 2.92745 48.6113 2.92356C48.6087 2.91967 48.605 2.91662 48.6007 2.9148C48.1933 2.85104 47.7658 3.34865 47.487 3.58245C47.4595 3.60621 47.497 3.65497 47.527 3.63371H47.522Z" fill="#101010"/>
</g>
<defs>
<clipPath id="clip0">
<rect width="5.68" height="56.235" fill="white" transform="translate(56.2354) rotate(90)"/>
</clipPath>
</defs>
</svg>
