<svg width="25" height="25" viewBox="0 0 25 25" fill="none" xmlns="http://www.w3.org/2000/svg">
<path fill-rule="evenodd" clip-rule="evenodd" d="M4.01075 19.7717C4.75747 18.9147 5.19743 20.4398 4.22254 20.2509C4.27712 20.4005 4.42669 20.4475 4.56097 20.5097C5.33826 20.5097 5.45616 19.9758 5.37756 19.3787C5.16577 19.1658 5.33826 18.2149 5.39394 17.9944C5.85791 17.0599 6.34481 17.0675 7.17778 16.6669C7.72363 16.2182 7.73564 15.6603 7.1232 15.3852C7.09105 15.3866 7.05917 15.3917 7.02822 15.4005C7.44525 15.728 7.05988 16.3285 6.5173 15.9671C6.22691 15.3776 6.79241 15.2673 7.17778 15.2913C8.05879 15.668 7.87756 16.6898 7.20944 17.2717C6.81643 17.4999 6.4387 17.6964 6.12429 18.168C5.73127 19.1581 6.34263 20.2346 4.859 20.6363C4.27712 20.6363 4.04132 20.3088 4.01075 19.7717Z" fill="#434343"/>
<path fill-rule="evenodd" clip-rule="evenodd" d="M7.46938 18.3013C7.65715 17.7675 7.99558 17.5077 8.45191 17.7675C8.63969 18.0819 8.52178 18.5317 7.99558 18.3876C7.79143 18.1834 7.79907 18.1911 7.78379 17.9247C7.51632 18.2304 7.54798 18.4116 7.79143 18.8122C8.39624 19.2489 8.86785 19.0557 9.26851 18.5142C9.67789 17.2795 8.74995 17.1299 8.32527 16.2347C8.16043 15.5579 8.32528 15 8.9541 14.7566C9.41807 14.7806 9.74012 14.8111 9.74012 15.3537C9.61458 15.6681 9.18226 15.7315 8.97593 15.3777C8.97593 15.0393 9.04689 14.9607 9.2827 14.8821C8.99121 14.7413 8.73685 14.9291 8.5589 15.2205C8.37113 15.9749 8.99558 16.2817 9.53379 16.6583C10.0611 17.2249 10.1157 18.0109 11.0349 18.1867C11.8209 18.1867 12.3013 17.928 12.4421 17.1736C12.3875 16.6146 12.3242 16.3002 11.7194 16.143C11.2554 16.143 10.9803 16.2456 10.9334 16.7882C10.9482 16.782 10.9643 16.7794 10.9803 16.7806C11.2161 16.1911 12.1277 16.9214 11.4279 17.3144C10.7368 17.3144 10.7838 16.6856 11.012 16.2609C11.7587 15.6059 12.5524 15.9334 12.9377 16.7096C13.0556 17.2358 13.0786 17.5579 12.8034 18.1168C12.1048 19.012 11.0742 19.036 9.95082 18.7369C9.92512 18.7465 9.89888 18.7545 9.87222 18.7609C9.47156 19.2871 9.2172 19.4443 8.48903 19.4836C7.84383 19.3111 7.52178 18.9378 7.4672 18.297L7.46938 18.3013Z" fill="#434343"/>
<path fill-rule="evenodd" clip-rule="evenodd" d="M13.2227 17.869C13.4509 16.6976 14.2522 16.8635 15.1725 16.6681C15.9367 16.6681 16.4301 16.8864 16.9487 17.4061C17.3963 17.9803 17.6561 18.7161 18.2686 19.1834C18.167 19.1834 17.9312 19.1048 17.6135 19.0415C16.9367 19.0098 16.2216 19.0655 15.5065 18.7904C14.917 18.3733 14.524 18.0196 14.4214 17.3198C13.8166 17.226 13.3057 17.4541 13.3603 18.2008C13.5262 18.4367 13.5262 18.4367 13.5961 18.476V18.1484C14.1234 17.5284 14.6878 18.3373 14.0841 18.6834C13.4705 18.6834 13.3057 18.4083 13.2271 17.8657L13.2227 17.869Z" fill="#434343"/>
<path fill-rule="evenodd" clip-rule="evenodd" d="M14.6222 9.05028C15.0775 8.24788 15.762 8.24024 16.4781 8.65727C16.8941 9.00334 17.1856 9.36469 17.7118 9.53063C19.5196 9.43674 19.0557 7.2981 17.8853 7.82539C17.8593 7.8493 17.8355 7.87561 17.8144 7.90399C17.8853 7.95858 18.0731 7.93456 18.1517 7.9826C18.357 8.31011 18.4039 8.57976 17.893 8.69002C17.3264 8.56338 17.5546 8.0219 17.822 7.75443C18.6681 7.32867 19.1725 7.93347 19.3613 8.70421C19.3067 9.26207 19.1965 9.63216 18.631 10.0143C18.6222 10.1092 18.6222 10.1092 18.7795 10.8243C18.7795 12.0743 18.5524 13.166 16.9639 13.166C16.1779 12.9859 15.8013 12.6005 15.8013 11.8385C16.0131 11.0437 16.4301 10.7926 17.1212 11.1704C17.2074 11.3669 17.31 11.5394 17.0666 11.7599C16.477 11.9957 16.1932 11.2959 16.7391 11.083C16.2281 11.083 16.0404 11.225 16.0404 11.8538C16.3231 12.7108 17.2107 12.773 17.7696 12.2151C18.2958 11.5153 18.1146 10.856 17.5644 10.3057C17.3286 10.1791 17.0851 10.0612 16.8417 9.94329C16.2805 9.41164 15.7849 8.13871 14.8471 8.86142C14.8078 8.9553 14.6506 9.19984 14.738 9.37233C15.2565 8.60814 15.869 9.6398 15.2489 9.86797C14.703 9.82867 14.6506 9.5612 14.6201 9.05028H14.6222Z" fill="#434343"/>
<path fill-rule="evenodd" clip-rule="evenodd" d="M15.1485 7.03831C15.2577 6.58962 15.416 6.55796 15.738 6.55796C16.2664 6.87783 15.809 7.64202 15.274 7.18678C15.274 7.75337 15.9422 7.7763 16.2959 7.57979C16.4872 7.41663 16.6312 7.20513 16.7129 6.96735C16.9957 5.96844 17.5699 5.48154 18.5208 5.40294C19.2206 5.46625 19.8723 5.75665 20.3286 5.15184C20.4378 4.77411 20.4465 4.63219 20.1714 4.35708C20.1537 4.36694 20.1351 4.37498 20.1158 4.3811C20.2817 4.70861 19.9192 5.08088 19.535 4.85272C19.2075 4.2632 19.5819 4.03503 20.1158 4.23154C20.3341 4.37346 20.3909 4.42804 20.4858 4.68787C20.4858 5.48918 20.226 5.85927 19.3778 6.07106C18.678 6.08634 18.2686 6.00774 17.6638 6.55796C17.4811 6.79753 17.3206 7.05333 17.1845 7.32215C16.9411 7.59726 16.6572 7.84071 16.178 7.90403C15.5885 7.87237 15.1954 7.66822 15.1485 7.0394V7.03831Z" fill="#434343"/>
<path fill-rule="evenodd" clip-rule="evenodd" d="M16.5395 15.2128C16.7054 14.5753 16.6737 14.1353 17.0427 13.6714C17.6792 13.1255 18.6312 13.2871 18.5438 14.2379C18.5055 14.3171 18.442 14.3813 18.3633 14.4205C18.2846 14.4597 18.1951 14.4717 18.1089 14.4546C18.0226 14.4375 17.9445 14.3923 17.8867 14.326C17.8289 14.2597 17.7947 14.1762 17.7895 14.0884C17.8986 13.7423 18.0722 13.6091 18.3561 13.774C18.3618 13.7564 18.3644 13.7379 18.3637 13.7194C17.9467 13.1997 17.3965 13.501 17.1847 14.096V14.5131C17.2316 14.5524 17.5537 14.6386 17.7818 14.7314C18.9609 15.4235 18.8506 16.3275 18.8899 17.5851C18.9063 17.7107 19.0548 18.1986 19.0242 18.3559C18.5362 17.7947 17.8364 17.453 17.224 17.0305C16.9412 16.6692 16.7054 16.3624 16.5788 15.9301C16.5711 15.6866 16.5558 15.4508 16.5395 15.215V15.2128Z" fill="#434343"/>
</svg>
