<svg width="25" height="25" viewBox="0 0 25 25" fill="none" xmlns="http://www.w3.org/2000/svg">
<path fill-rule="evenodd" clip-rule="evenodd" d="M5.22831 4.01093C6.0853 4.75766 4.56019 5.19761 4.74906 4.22272C4.59949 4.27731 4.55255 4.42687 4.49032 4.56115C4.49032 5.33844 5.02417 5.45635 5.62133 5.37774C5.83421 5.16595 6.78508 5.33844 7.0056 5.39412C7.9401 5.85809 7.93246 6.34499 8.33312 7.17796C8.78181 7.72382 9.33967 7.73582 9.61478 7.12338C9.61342 7.09123 9.60829 7.05935 9.59949 7.0284C9.27198 7.44543 8.67154 7.06006 9.0329 6.51748C9.62242 6.22709 9.73268 6.79259 9.70866 7.17796C9.33202 8.05897 8.31019 7.87775 7.72831 7.20962C7.50015 6.81661 7.30364 6.43888 6.83202 6.12447C5.84185 5.73146 4.76543 6.34281 4.36368 4.85919C4.36368 4.27731 4.6912 4.0415 5.22831 4.01093Z" fill="#434343"/>
<path fill-rule="evenodd" clip-rule="evenodd" d="M6.69865 7.46944C7.23249 7.65721 7.49231 7.99564 7.23249 8.45197C6.91808 8.63975 6.4683 8.52184 6.6124 7.99564C6.81655 7.79149 6.80891 7.79914 7.07528 7.78385C6.76961 7.51638 6.58838 7.54804 6.18773 7.79149C5.75105 8.3963 5.94428 8.86791 6.48576 9.26857C7.72048 9.67796 7.87004 8.75001 8.76524 8.32534C9.4421 8.16049 9.99996 8.32534 10.2434 8.95416C10.2194 9.41813 10.1888 9.74018 9.64625 9.74018C9.33184 9.61464 9.26852 9.18232 9.62223 8.97599C9.96066 8.97599 10.0393 9.04695 10.1179 9.28276C10.2587 8.99127 10.0709 8.73691 9.77943 8.55896C9.02507 8.37119 8.7183 8.99564 8.34166 9.53385C7.77507 10.0611 6.98904 10.1157 6.81328 11.0349C6.81328 11.821 7.07201 12.3013 7.82638 12.4421C8.38533 12.3876 8.69974 12.3242 8.85694 11.7194C8.85694 11.2555 8.75432 10.9804 8.21175 10.9334C8.21798 10.9482 8.22059 10.9643 8.21939 10.9804C8.80891 11.2162 8.07856 12.1277 7.68555 11.428C7.68555 10.7369 8.31437 10.7839 8.73904 11.012C9.39406 11.7587 9.06655 12.5524 8.29035 12.9378C7.76415 13.0557 7.4421 13.0786 6.88314 12.8035C5.98795 12.1048 5.96393 11.0742 6.26306 9.95088C6.25348 9.92519 6.24546 9.89894 6.23904 9.87228C5.71284 9.47162 5.55563 9.21726 5.51633 8.48909C5.68882 7.84389 6.06218 7.52184 6.70301 7.46726L6.69865 7.46944Z" fill="#434343"/>
<path fill-rule="evenodd" clip-rule="evenodd" d="M7.13116 13.2227C8.30256 13.4509 8.13662 14.2522 8.33203 15.1725C8.33203 15.9367 8.11369 16.4301 7.59404 16.9487C7.0198 17.3963 6.28399 17.6561 5.81674 18.2686C5.81674 18.167 5.89535 17.9312 5.95867 17.6135C5.99033 16.9367 5.93465 16.2216 6.20976 15.5065C6.62679 14.917 6.9805 14.524 7.68028 14.4214C7.77417 13.8166 7.546 13.3057 6.79928 13.3603C6.56347 13.5262 6.56347 13.5262 6.52417 13.5961H6.85168C7.47177 14.1234 6.66281 14.6878 6.31674 14.0841C6.31674 13.4705 6.59185 13.3057 7.13443 13.2271L7.13116 13.2227Z" fill="#434343"/>
<path fill-rule="evenodd" clip-rule="evenodd" d="M15.9496 14.6223C16.752 15.0775 16.7597 15.762 16.3426 16.4782C15.9966 16.8941 15.6352 17.1856 15.4693 17.7118C15.5632 19.5197 17.7018 19.0557 17.1745 17.8854C17.1506 17.8593 17.1243 17.8355 17.0959 17.8144C17.0413 17.8854 17.0653 18.0731 17.0173 18.1518C16.6898 18.357 16.4202 18.4039 16.3099 17.893C16.4365 17.3264 16.978 17.5546 17.2455 17.8221C17.6712 18.6681 17.0664 19.1725 16.2957 19.3614C15.7378 19.3068 15.3677 19.1965 14.9857 18.631C14.8907 18.6223 14.8907 18.6223 14.1756 18.7795C12.9256 18.7795 11.8339 18.5524 11.8339 16.964C12.014 16.178 12.3994 15.8013 13.1614 15.8013C13.9562 16.0131 14.2073 16.4301 13.8295 17.1212C13.633 17.2074 13.4605 17.31 13.24 17.0666C13.0042 16.4771 13.704 16.1932 13.9169 16.7391C13.9169 16.2282 13.775 16.0404 13.1461 16.0404C12.2891 16.3231 12.2269 17.2107 12.7848 17.7697C13.4846 18.2959 14.144 18.1146 14.6942 17.5644C14.8208 17.3286 14.9387 17.0852 15.0566 16.8417C15.5883 16.2806 16.8612 15.7849 16.1385 14.8472C16.0446 14.8079 15.8001 14.6507 15.6276 14.738C16.3918 15.2566 15.3601 15.869 15.1319 15.2489C15.1712 14.7031 15.4387 14.6507 15.9496 14.6201V14.6223Z" fill="#434343"/>
<path fill-rule="evenodd" clip-rule="evenodd" d="M17.9616 15.1485C18.4103 15.2576 18.442 15.4159 18.442 15.738C18.1221 16.2664 17.3579 15.809 17.8132 15.274C17.2466 15.274 17.2236 15.9421 17.4201 16.2959C17.5833 16.4872 17.7948 16.6312 18.0326 16.7129C19.0315 16.9956 19.5184 17.5699 19.597 18.5207C19.5337 19.2205 19.2433 19.8723 19.8481 20.3286C20.2258 20.4378 20.3677 20.4465 20.6429 20.1714C20.633 20.1537 20.625 20.135 20.6188 20.1157C20.2913 20.2817 19.9191 19.9192 20.1472 19.5349C20.7367 19.2074 20.9649 19.5819 20.7684 20.1157C20.6265 20.3341 20.5719 20.3908 20.3121 20.4858C19.5108 20.4858 19.1407 20.226 18.9289 19.3777C18.9136 18.6779 18.9922 18.2686 18.442 17.6638C18.2024 17.481 17.9466 17.3206 17.6778 17.1845C17.4027 16.941 17.1592 16.6572 17.0959 16.1779C17.1276 15.5884 17.3317 15.1954 17.9605 15.1485H17.9616Z" fill="#434343"/>
<path fill-rule="evenodd" clip-rule="evenodd" d="M9.78707 16.5393C10.4246 16.7053 10.8646 16.6736 11.3286 17.0426C11.8744 17.6791 11.7128 18.631 10.762 18.5437C10.6828 18.5054 10.6186 18.4419 10.5794 18.3632C10.5402 18.2845 10.5282 18.195 10.5453 18.1087C10.5624 18.0225 10.6076 17.9443 10.6739 17.8865C10.7402 17.8287 10.8237 17.7945 10.9115 17.7893C11.2576 17.8985 11.3908 18.0721 11.2259 18.3559C11.2435 18.3617 11.262 18.3642 11.2805 18.3636C11.8002 17.9465 11.4989 17.3963 10.9039 17.1845H10.4869C10.4476 17.2315 10.3613 17.5535 10.2685 17.7817C9.57637 18.9607 8.67244 18.8505 7.4148 18.8898C7.28925 18.9061 6.80126 19.0546 6.64406 19.024C7.20519 18.536 7.5469 17.8363 7.96939 17.2238C8.33074 16.9411 8.63751 16.7053 9.06982 16.5786C9.31327 16.571 9.54908 16.5557 9.78489 16.5393H9.78707Z" fill="#434343"/>
</svg>
