<svg width="53" height="8" viewBox="0 0 53 8" fill="none" xmlns="http://www.w3.org/2000/svg">
<path d="M52.1705 3C52.0081 2.9988 51.8497 3.0496 51.7183 3.14498C51.587 3.24035 51.4896 3.37528 51.4405 3.53C49.8863 3.20008 48.3562 2.76577 46.8605 2.23C45.1355 1.6289 43.4632 0.886374 41.8605 0.0100021L38.8605 3.01H36.3005C36.0805 1.71 35.3005 0.740002 34.3705 0.740002C33.4405 0.740002 32.6605 1.74 32.4405 3.01H3.00046C2.83285 2.69163 2.56343 2.43857 2.2352 2.29122C1.90696 2.14387 1.53882 2.1107 1.18954 2.19703C0.840251 2.28335 0.529946 2.48419 0.308142 2.76748C0.0863386 3.05078 -0.0341797 3.40021 -0.0341797 3.76C-0.0341797 4.1198 0.0863386 4.46922 0.308142 4.75252C0.529946 5.03582 0.840251 5.23665 1.18954 5.32298C1.53882 5.4093 1.90696 5.37614 2.2352 5.22878C2.56343 5.08143 2.83285 4.82837 3.00046 4.51H32.4005C32.6205 5.82 33.4005 6.78 34.3305 6.78C35.2605 6.78 36.0405 5.78 36.2605 4.51H38.8305L41.8305 7.51C43.4332 6.63363 45.1055 5.89111 46.8305 5.29C48.3362 4.75633 49.8764 4.32534 51.4405 4C51.4896 4.15472 51.587 4.28965 51.7183 4.38503C51.8497 4.4804 52.0081 4.53121 52.1705 4.53C52.3773 4.53 52.5757 4.44782 52.722 4.30155C52.8683 4.15527 52.9505 3.95687 52.9505 3.75C52.9505 3.54313 52.8683 3.34474 52.722 3.19846C52.5757 3.05218 52.3773 2.97 52.1705 2.97V3Z" fill="#382C2E"/>
</svg>
