<svg width="279" height="29" viewBox="0 0 279 29" fill="none" xmlns="http://www.w3.org/2000/svg">
<g clip-path="url(#clip0)">
<path d="M0.380132 0H278.44C278.541 0 278.638 0.0400356 278.709 0.111299C278.78 0.182563 278.82 0.279218 278.82 0.38C278.821 0.430737 278.813 0.481228 278.794 0.528493C278.776 0.575757 278.748 0.618836 278.712 0.655189C278.677 0.691541 278.635 0.720429 278.588 0.740148C278.541 0.759867 278.491 0.770018 278.44 0.77H0.380132C0.329377 0.770018 0.279132 0.759867 0.232364 0.740148C0.185597 0.720429 0.143253 0.691541 0.107833 0.655189C0.0724126 0.618836 0.0446338 0.575757 0.0261359 0.528493C0.00763801 0.481228 -0.00120405 0.430737 0.000131611 0.38C0.000131611 0.279218 0.0401672 0.182563 0.111431 0.111299C0.182695 0.0400356 0.279349 0 0.380132 0V0Z" fill="white"/>
<path d="M77.7103 5.61C77.8077 5.61271 77.9045 5.59448 77.9942 5.55652C78.0839 5.51856 78.1644 5.46177 78.2303 5.39C79.0903 2.8 82.7303 1.87 85.8103 2.19C89.7117 2.66054 93.5188 3.72273 97.1003 5.34C95.7556 5.99731 94.5897 6.96977 93.7017 8.17462C92.8138 9.37947 92.23 10.781 92.0003 12.26C91.6703 15.37 93.5403 18.26 98.0003 18.73C100.54 19 102.93 18.01 103.18 15.73C103.27 14.88 102.95 14.18 102.18 14.1C102.18 14.1 101.52 14.03 101.43 14.88C101.17 17.38 99.7803 18.32 98.2803 18.16C95.1303 17.83 93.7103 15.11 94.0203 12.16C94.1734 10.8669 94.6117 9.62381 95.3034 8.52053C95.9951 7.41726 96.923 6.48124 98.0203 5.78C100.13 6.7 102.14 7.63 104.11 8.45C103.61 11.86 111.2 13.75 119.11 9.37L119.3 9.29C121.142 8.32985 122.907 7.22996 124.58 6C124.619 6.14141 124.649 6.285 124.67 6.43C124.713 6.71084 124.695 6.99755 124.619 7.27105C124.542 7.54455 124.408 7.79855 124.225 8.01616C124.042 8.23376 123.816 8.40998 123.56 8.53306C123.304 8.65615 123.024 8.72328 122.74 8.73C122.21 8.79 122.12 8.62 121.74 8.66C121.36 8.7 121.4 8.89 121.43 9.14C121.481 9.41605 121.639 9.66093 121.869 9.82181C122.099 9.98269 122.383 10.0467 122.66 10C123.067 9.98605 123.466 9.88643 123.831 9.70764C124.197 9.52885 124.52 9.27493 124.781 8.96249C125.041 8.65004 125.233 8.28612 125.343 7.89451C125.453 7.50291 125.48 7.09246 125.42 6.69C125.375 6.32239 125.281 5.9625 125.14 5.62C128.67 3.19 132.21 0.899998 136.62 1.37C137.363 1.44247 138.085 1.65273 138.75 1.99L138.67 2.05C138.26 2.43296 137.935 2.89799 137.716 3.41485C137.497 3.93171 137.39 4.48883 137.4 5.05C137.42 6.31123 137.896 7.52257 138.74 8.46L138.9 8.63C137.727 9.42537 136.31 9.77964 134.9 9.63C134.121 9.62247 133.354 9.42669 132.667 9.05932C131.979 8.69194 131.39 8.16386 130.95 7.52C130.715 7.14949 130.608 6.71181 130.646 6.27446C130.684 5.83712 130.865 5.42442 131.16 5.1C131.87 4.43 132.7 4.75 133.46 5.1C133.97 5.33 135.08 5.01 134.59 4.25C134.37 4 133 4 132.67 4C131.927 4.07375 131.227 4.38194 130.67 4.88C130.284 5.26786 130.038 5.7741 129.973 6.31789C129.907 6.86169 130.026 7.41166 130.31 7.88C130.721 8.65356 131.329 9.30552 132.071 9.7706C132.813 10.2357 133.665 10.4976 134.54 10.53C136.268 10.6475 137.978 10.1202 139.34 9.05C140.696 10.1 142.39 10.616 144.1 10.5C144.976 10.4676 145.827 10.2057 146.57 9.7406C147.312 9.27552 147.919 8.62356 148.33 7.85C148.618 7.38273 148.739 6.83194 148.673 6.28724C148.608 5.74254 148.36 5.23599 147.97 4.85C147.414 4.35194 146.713 4.04375 145.97 3.97C145.6 3.97 144.26 3.97 144.06 4.24C143.56 5 144.67 5.32 145.18 5.09C145.95 4.74 146.77 4.42 147.48 5.09C147.776 5.41442 147.957 5.82712 147.995 6.26446C148.033 6.70181 147.926 7.13949 147.69 7.51C147.252 8.15308 146.665 8.68077 145.979 9.04814C145.293 9.41552 144.528 9.6117 143.75 9.62C142.34 9.77585 140.921 9.42105 139.75 8.62C140.686 7.66403 141.222 6.38744 141.25 5.05C141.252 4.34839 141.069 3.65865 140.72 3.05C140.725 3.02352 140.725 2.99648 140.72 2.97C140.532 2.59482 140.278 2.2562 139.97 1.97C140.631 1.63059 141.351 1.42017 142.09 1.35C146.46 0.889998 149.97 3.13 153.47 5.53C153.313 5.89397 153.205 6.27739 153.15 6.67C153.087 7.08134 153.113 7.50151 153.227 7.90178C153.341 8.30205 153.54 8.67297 153.811 8.98916C154.082 9.30536 154.417 9.55938 154.795 9.73384C155.173 9.9083 155.584 9.99909 156 10C156.277 10.0467 156.561 9.98269 156.791 9.82181C157.021 9.66093 157.179 9.41605 157.23 9.14C157.23 8.89 157.17 8.69 156.92 8.66C156.67 8.63 156.47 8.79 155.92 8.73C155.641 8.72121 155.367 8.65402 155.115 8.53274C154.863 8.41147 154.64 8.23881 154.459 8.02589C154.278 7.81297 154.144 7.56452 154.065 7.29653C153.986 7.02855 153.964 6.74699 154 6.47C154.02 6.29913 154.06 6.13126 154.12 5.97C155.815 7.19923 157.6 8.29901 159.46 9.26C159.55 9.26 159.65 9.33 159.74 9.38C167.64 13.71 175.2 11.82 174.68 8.38C176.68 7.57 178.68 6.63 180.75 5.72C181.849 6.41965 182.778 7.35526 183.47 8.45883C184.162 9.56241 184.599 10.8063 184.75 12.1C185.07 15.1 183.64 17.78 180.49 18.1C178.99 18.26 177.61 17.32 177.34 14.82C177.25 13.97 176.6 14.04 176.6 14.04C175.83 14.12 175.51 14.82 175.6 15.67C175.85 17.97 178.25 18.96 180.79 18.67C185.28 18.19 187.16 15.31 186.79 12.2C186.558 10.7193 185.971 9.31684 185.079 8.11195C184.188 6.90707 183.018 5.9355 181.67 5.28C185.267 3.6783 189.088 2.63625 193 2.19C196.07 1.87 199.71 2.8 200.57 5.39C200.638 5.46255 200.72 5.51975 200.811 5.55771C200.903 5.59567 201.001 5.6135 201.1 5.61C201.552 5.52929 201.954 5.27447 202.219 4.90041C202.485 4.52635 202.593 4.06296 202.52 3.61C202.35 2.04 200.22 0.199998 193.64 0.899998C189.198 1.53307 184.889 2.88402 180.88 4.9C178.353 3.84862 175.596 3.47297 172.88 3.81C168.88 4.24 165.15 6.11 163.67 9.81C162.697 9.65877 161.746 9.38667 160.84 9C158.639 7.87593 156.505 6.62379 154.45 5.25C154.507 5.13765 154.574 5.03057 154.65 4.93C156.45 5.73563 158.351 6.29403 160.3 6.59C163.84 7.03 166.09 5.8 166.25 4.51C166.38 3.51 165.25 2.43 162.38 2.07C158.6 1.6 155.96 2.7 154.53 4.22C153.09 3.67 150.45 2.54 147.63 1.7C145.769 0.981785 143.768 0.697909 141.78 0.869998C140.949 0.945111 140.143 1.19018 139.41 1.59C138.67 1.16845 137.848 0.909372 137 0.829998C135.223 0.667984 133.431 0.879164 131.74 1.45C129.155 2.22919 126.612 3.14039 124.12 4.18C122.68 2.66 120.05 1.56 116.27 2.03C113.42 2.39 112.27 3.45 112.39 4.47C112.55 5.76 114.81 6.99 118.39 6.55C120.326 6.24888 122.213 5.69062 124 4.89C124.092 5.01254 124.172 5.14306 124.24 5.28C122.233 6.63884 120.15 7.8809 118 9C117.103 9.40224 116.159 9.69113 115.19 9.86C113.71 6.17 110.02 4.3 105.99 3.86C103.274 3.52482 100.518 3.9004 97.9903 4.95C93.9818 2.93402 89.6723 1.58307 85.2303 0.949998C78.6603 0.249998 76.5203 2.09 76.3503 3.66C76.2945 4.09586 76.4028 4.5369 76.6542 4.89732C76.9055 5.25774 77.282 5.51177 77.7103 5.61ZM173.25 4.26C175.556 3.94052 177.904 4.30929 180 5.32C175.56 7.43 171.34 9.47 167.35 9.9C166.666 9.97448 165.977 9.99454 165.29 9.96C166.6 6.44 169.79 4.62 173.25 4.26ZM162 2.4C163.88 2.63 164.7 3.4 164.6 4.2C164.48 5.2 162.84 6.14 160.02 5.79C158.307 5.51462 156.63 5.04839 155.02 4.4C156.29 3 158.65 2 162 2.4ZM154.14 4.65C154.077 4.72853 154.02 4.81214 153.97 4.9C153.3 4.49 152.62 4.08 151.97 3.69L154.14 4.65ZM139.41 2.43L139.61 2.59C140.002 2.89365 140.317 3.28558 140.529 3.73391C140.741 4.18223 140.844 4.67428 140.83 5.17C140.86 5.73857 140.746 6.3055 140.498 6.81787C140.249 7.33024 139.875 7.77134 139.41 8.1C138.962 7.71887 138.603 7.24341 138.359 6.70755C138.115 6.17169 137.993 5.58864 138 5C138.001 4.57893 138.091 4.16276 138.263 3.77855C138.435 3.39434 138.686 3.05071 139 2.77C139.128 2.64618 139.265 2.5325 139.41 2.43ZM118.69 5.79C115.86 6.14 114.23 5.2 114.1 4.2C114.01 3.42 114.82 2.63 116.7 2.4C120.04 1.98 122.39 3.01 123.64 4.4C122.047 5.04553 120.387 5.51173 118.69 5.79ZM127.3 3.47C126.45 3.94 125.61 4.47 124.78 4.96C124.71 4.86 124.65 4.75 124.57 4.65C125.21 4.36 126.18 3.93 127.3 3.47ZM105.57 4.26C109.03 4.62 112.22 6.44 113.57 9.96C112.903 9.99205 112.234 9.97199 111.57 9.9C107.57 9.47 103.35 7.43 98.9103 5.32C100.98 4.32686 103.294 3.95851 105.57 4.26Z" fill="white"/>
<path d="M139.41 9C136.97 12.14 128.48 17 125.01 14.76C123.8 13.97 124.5 12.13 126.79 12.58C129.588 13.1625 132.498 12.8403 135.1 11.66C136.631 10.9358 138.077 10.0436 139.41 9Z" fill="white"/>
<path d="M139.41 9C141.85 12.14 150.34 17 153.81 14.76C155.03 13.97 154.32 12.13 152.03 12.58C149.236 13.1624 146.329 12.8402 143.73 11.66C142.195 10.9373 140.746 10.0451 139.41 9Z" fill="white"/>
<path d="M139.16 28.56C139.974 28.5161 140.737 28.1515 141.282 27.5461C141.828 26.9407 142.111 26.1438 142.07 25.33C142.07 23.55 139.16 13.5 139.16 13.5C139.16 13.5 136.26 23.55 136.26 25.33C136.219 26.1422 136.501 26.9376 137.044 27.5427C137.588 28.1478 138.348 28.5135 139.16 28.56ZM130.51 25C130.862 25.1971 131.249 25.323 131.65 25.3704C132.051 25.4178 132.457 25.3858 132.845 25.2762C133.233 25.1666 133.596 24.9816 133.912 24.7317C134.229 24.4819 134.493 24.1721 134.69 23.82C135.64 22.32 138.55 12.27 138.55 12.27C138.55 12.27 130.73 19.27 129.78 20.73C129.313 21.3936 129.127 22.2155 129.264 23.0157C129.4 23.8159 129.849 24.5294 130.51 25ZM147.81 25C148.473 24.5309 148.924 23.8182 149.062 23.0179C149.201 22.2175 149.017 21.3949 148.55 20.73C147.55 19.22 139.78 12.27 139.78 12.27C139.78 12.27 142.68 22.32 143.63 23.82C144.03 24.529 144.694 25.0511 145.477 25.2722C146.26 25.4933 147.099 25.3955 147.81 25Z" fill="white"/>
</g>
<defs>
<clipPath id="clip0">
<rect width="278.82" height="28.56" fill="white"/>
</clipPath>
</defs>
</svg>
