<svg width="25" height="25" viewBox="0 0 25 25" fill="none" xmlns="http://www.w3.org/2000/svg">
<g clip-path="url(#clip0)">
<path fill-rule="evenodd" clip-rule="evenodd" d="M0 12.17C1.73 12.46 2.81 13.03 2.45 14.25C3.89 14.98 2.81 12.74 4.18 13.54C4.82 14.54 3.74 15.41 2.38 16.2C3.96 15.77 5.26 15.55 5.47 16.78C5.11 18.29 4.32 15.98 3.82 17.5C4.9 18.07 4.54 19.3 3.53 20.74L4.39 19.87C4.75 19.37 5.04 18.79 4.82 18.36C5.25748 18.4468 5.71103 18.398 6.12 18.22L12.17 12.22L6.17 18.22C6.03612 18.4037 5.95042 18.618 5.92072 18.8434C5.89102 19.0687 5.91828 19.2979 6 19.51C5.7258 19.4347 5.43727 19.4282 5.15994 19.491C4.88261 19.5538 4.62503 19.6839 4.41 19.87L3.55 20.74C5.06 19.74 6.21 19.37 6.86 20.45C8.3 19.94 6 19.15 7.58 18.79C8.73 19.01 8.52 20.38 8.16 21.89C8.95 20.52 9.74 19.44 10.75 20.09C11.61 21.46 9.38 20.38 10.03 21.82C11.25 21.46 11.83 22.54 12.19 24.26V23.11C12.04 22.46 11.83 21.89 11.32 21.67C11.76 21.53 11.97 21.17 12.19 20.67C12.2354 20.8864 12.3304 21.0894 12.4674 21.2629C12.6045 21.4364 12.78 21.5757 12.98 21.67C12.7319 21.8178 12.5279 22.0293 12.389 22.2825C12.2501 22.5356 12.1814 22.8213 12.19 23.11V24.26C12.47 22.54 13.05 21.46 14.27 21.82C14.92 20.95 15.57 21.17 16.22 21.89C16.15 20.89 16.43 20.3 17.52 20.45C18.09 19.37 19.32 19.73 20.76 20.74L19.89 19.87C19.6906 19.6851 19.4468 19.5548 19.1823 19.4918C18.9177 19.4287 18.6414 19.435 18.38 19.51C18.4434 19.2964 18.4636 19.0724 18.4396 18.8509C18.4155 18.6295 18.3477 18.415 18.24 18.22L12.24 12.22L18.24 18.22C18.6439 18.4037 19.0961 18.4528 19.53 18.36C19.455 18.6214 19.4487 18.8977 19.5118 19.1623C19.5748 19.4268 19.7051 19.6706 19.89 19.87L20.76 20.74C19.76 19.3 19.39 18.07 20.47 17.5C19.96 15.98 19.17 18.29 18.81 16.78C19.03 15.55 20.4 15.78 21.91 16.2C20.54 15.41 19.46 14.54 20.11 13.54C21.47 12.74 20.4 14.98 21.84 14.25C21.47 13.03 22.56 12.46 24.28 12.17H23.11C22.46 12.24 21.89 12.46 21.74 12.96C21.6293 12.7569 21.4751 12.5808 21.2884 12.4442C21.1017 12.3076 20.8871 12.214 20.66 12.17V12.17C21.1158 12.0247 21.501 11.7144 21.74 11.3C21.89 11.81 22.46 12.02 23.11 12.17H24.26C22.54 11.81 21.45 11.23 21.82 10.01C20.38 9.36 21.45 11.52 20.09 10.73C19.44 9.73 20.52 8.86 21.89 8.06C20.38 8.5 19.01 8.71 18.79 7.49C19.15 5.98 19.94 8.28 20.45 6.77C19.37 6.19 19.73 4.97 20.74 3.53L19.87 4.39C19.6774 4.60524 19.5432 4.86624 19.4802 5.14809C19.4172 5.42994 19.4274 5.72324 19.51 6C19.3003 5.91402 19.0725 5.88178 18.8472 5.90623C18.6219 5.93068 18.4063 6.01104 18.22 6.14L12.22 12.19L18.22 6.19C18.4319 5.79072 18.482 5.32523 18.36 4.89C18.79 5.11 19.36 4.82 19.87 4.46L20.74 3.6C19.3 4.6 18.07 4.97 17.5 3.89C16.41 4.03 16.13 3.45 16.2 2.45C15.55 3.17 14.9 3.38 14.25 2.52C13.97 3.17 12.31 2.37 13.32 4.39L14.47 6.62C13.03 5.47 12.47 5.83 12.89 7.62L13.1 8.34C12.45 7.98 12.24 8.41 12.38 8.99C12.2901 9.3256 12.2694 9.67599 12.3193 10.0198C12.3692 10.3637 12.4885 10.6938 12.67 10.99V10.99C13.1 10.99 13.61 10.56 14.25 9.77C14.76 9.41 14.9 8.98 14.18 8.77L14.83 8.41C16.41 7.48 16.27 6.83 14.47 6.61L16.85 5.82C18.94 5.1 17.28 4.52 17.5 3.88C15.98 4.38 18.36 5.17 16.78 5.53C15.62 5.32 15.78 3.95 16.2 2.44C15.41 3.8 14.62 4.88 13.61 4.24C12.74 2.87 14.98 3.95 14.25 2.51C13 2.81 12.45 1.73 12.17 0V1.15C12.24 1.87 12.45 2.38 12.96 2.59C12.7617 2.68672 12.5878 2.82683 12.451 2.99994C12.3142 3.17305 12.2182 3.37472 12.17 3.59V12.16L6.17 6.16C5.9767 6.02171 5.75158 5.93453 5.51556 5.90656C5.27953 5.87859 5.04027 5.91073 4.82 6C4.88799 5.7202 4.88422 5.42777 4.80905 5.14982C4.73388 4.87186 4.58974 4.61739 4.39 4.41L3.53 3.55C4.53 4.99 4.9 6.21 3.82 6.79C4.32 8.3 5.11 6 5.47 7.51C5.26 8.73 3.96 8.51 2.38 8.08C3.38 8.16 3.96 7.87 3.82 6.79C4.46 7 5 5.33 5.76 7.42L6.55 9.86C6.77 7.99 7.42 7.86 8.42 9.43L8.71 10.08C8.93 9.43 9.43 9.5 9.71 10.08C10.5 10.66 10.93 11.23 10.93 11.66L12.16 12.17H3.6C3.16916 12.016 2.81213 11.7054 2.6 11.3C2.39 11.81 1.88 12.02 1.16 12.17H0C1.73 11.81 2.81 11.23 2.45 10.01C3.89 9.36 2.81 11.52 4.18 10.73C4.82 9.73 3.74 8.86 2.38 8.06C3.1 8.78 3.38 9.43 2.45 10.01C3.1 10.37 2.3 11.95 4.32 11.01L6.55 9.86C5.4 11.3 5.76 11.86 7.55 11.38L8.27 11.16C7.98 11.81 8.34 12.02 8.92 11.88C9.92 12.02 10.65 11.95 10.92 11.66L12.15 12.17L11.57 12.38L12.15 12.17H3.6C3.38472 12.2182 3.18305 12.3142 3.00994 12.451C2.83683 12.5878 2.69672 12.7617 2.6 12.96C2.39 12.46 1.88 12.24 1.16 12.17H0ZM9 9.93C9.0665 9.89579 9.14021 9.87794 9.215 9.87794C9.28979 9.87794 9.3635 9.89579 9.43 9.93C9.4643 9.99826 9.48216 10.0736 9.48216 10.15C9.48216 10.2264 9.4643 10.3017 9.43 10.37C9.3635 10.4042 9.28979 10.4221 9.215 10.4221C9.14021 10.4221 9.0665 10.4042 9 10.37C8.9657 10.3017 8.94784 10.2264 8.94784 10.15C8.94784 10.0736 8.9657 9.99826 9 9.93V9.93ZM16.2 21.93C15.41 20.56 14.62 19.48 13.61 20.13C12.74 21.5 14.98 20.42 14.25 21.86C13.97 21.21 12.31 22 13.32 20.05L14.47 17.75C13.03 18.9 12.47 18.54 12.89 16.75L13.1 16C12.45 16.36 12.24 15.93 12.38 15.35C12.2087 14.6712 12.3129 13.9522 12.67 13.35V13.35C13.1 13.35 13.61 13.78 14.25 14.57C14.76 14.93 14.9 15.36 14.18 15.57L14.83 15.93C16.41 16.87 16.27 17.52 14.47 17.73L16.85 18.52C18.94 19.24 17.28 19.82 17.5 20.47C15.98 19.96 18.36 19.17 16.78 18.81C15.62 19.03 15.78 20.4 16.2 21.91V21.93ZM14.33 15.3C14.2764 15.3349 14.2139 15.3534 14.15 15.3534C14.0861 15.3534 14.0236 15.3349 13.97 15.3C13.9362 15.2836 13.9077 15.2581 13.8877 15.2262C13.8678 15.1944 13.8572 15.1576 13.8572 15.12C13.8572 15.0824 13.8678 15.0456 13.8877 15.0138C13.9077 14.9819 13.9362 14.9564 13.97 14.94C13.9887 14.9089 14.0151 14.8832 14.0466 14.8654C14.0781 14.8475 14.1138 14.8382 14.15 14.8382C14.1862 14.8382 14.2219 14.8475 14.2534 14.8654C14.2849 14.8832 14.3113 14.9089 14.33 14.94C14.3649 14.9936 14.3834 15.0561 14.3834 15.12C14.3834 15.1839 14.3649 15.2464 14.33 15.3V15.3ZM12.33 12.5L12.19 12.21L12.33 12.5ZM12.19 12.21L6.19 6.21C6.03977 6.01505 5.94319 5.78416 5.90985 5.54031C5.87652 5.29645 5.9076 5.04812 6 4.82C5.49 5.04 5 4.75 4.41 4.39L3.55 3.53C5.06 4.53 6.21 4.9 6.86 3.82C8.3 4.32 6 5.11 7.58 5.47C8.73 5.26 8.52 3.89 8.16 2.38C8.95 3.74 9.74 4.82 10.75 4.18C11.61 2.81 9.38 3.89 10.03 2.45C11.25 2.81 11.83 1.73 12.19 0V1.15C12.04 1.87 11.83 2.38 11.32 2.59C11.76 2.74 11.97 3.1 12.19 3.59V12.16V12.21ZM8.19 2.42C8.83 3.14 9.48 3.35 10.06 2.49C10.42 3.14 12 2.34 11.06 4.36L9.86 6.55L7.42 5.76C5.33 5 7 4.46 6.84 3.82C7.84 3.96 8.14 3.38 8.14 2.38L8.19 2.42ZM10 9C10.0536 8.96514 10.1161 8.94659 10.18 8.94659C10.2439 8.94659 10.3064 8.96514 10.36 9C10.3942 9.0665 10.4121 9.14021 10.4121 9.215C10.4121 9.28979 10.3942 9.3635 10.36 9.43C10.2935 9.46421 10.2198 9.48206 10.145 9.48206C10.0702 9.48206 9.9965 9.46421 9.93 9.43C9.88522 9.36273 9.86754 9.28101 9.88053 9.20125C9.89351 9.12149 9.93619 9.04959 10 9ZM9.86 6.55C11.3 5.4 11.86 5.76 11.38 7.55L11.16 8.27C11.81 7.91 12.02 8.34 11.95 8.92C12.02 9.92 11.95 10.65 11.66 10.92C11.23 10.92 10.73 10.49 10.08 9.7C9.58 9.34 9.43 8.91 10.08 8.7L9.43 8.34C7.85 7.42 8 6.77 9.86 6.55ZM20.45 17.55C19.8 17.33 19.22 18.98 18.5 16.9L17.71 14.52L20 13.32C21.95 12.32 21.23 13.97 21.81 14.25C20.94 14.9 21.16 15.55 21.88 16.2C20.94 16.13 20.29 16.42 20.44 17.5L20.45 17.55ZM15.26 14.38C15.2064 14.4149 15.1439 14.4334 15.08 14.4334C15.0161 14.4334 14.9536 14.4149 14.9 14.38C14.8668 14.3548 14.84 14.3223 14.8215 14.285C14.803 14.2477 14.7933 14.2066 14.7933 14.165C14.7933 14.1234 14.803 14.0823 14.8215 14.045C14.84 14.0077 14.8668 13.9752 14.9 13.95C14.9519 13.9111 15.0151 13.89 15.08 13.89C15.1449 13.89 15.2081 13.9111 15.26 13.95C15.2951 13.9738 15.3238 14.0059 15.3436 14.0434C15.3634 14.0808 15.3738 14.1226 15.3738 14.165C15.3738 14.2074 15.3634 14.2492 15.3436 14.2866C15.3238 14.3241 15.2951 14.3562 15.26 14.38V14.38ZM13.32 12.6C13.9337 12.2727 14.6498 12.194 15.32 12.38C15.9 12.24 16.32 12.46 15.97 13.1L16.69 12.89C18.49 12.46 18.85 12.96 17.69 14.47C17.48 16.27 16.9 16.47 15.89 14.83L15.53 14.18C15.31 14.9 14.88 14.76 14.53 14.25C13.942 13.8605 13.5101 13.2763 13.31 12.6H13.32ZM11.45 8.42C11.66 8.42 11.74 8.5 11.74 8.64C11.743 8.67885 11.7376 8.71789 11.724 8.75443C11.7105 8.79098 11.6893 8.82417 11.6617 8.85172C11.6342 8.87927 11.601 8.90054 11.5644 8.91405C11.5279 8.92756 11.4888 8.933 11.45 8.93C11.3 8.93 11.23 8.78 11.23 8.64C11.2268 8.61034 11.2304 8.58035 11.2403 8.55222C11.2503 8.5241 11.2664 8.49855 11.2875 8.47746C11.3086 8.45637 11.3341 8.44026 11.3622 8.43032C11.3903 8.42038 11.4203 8.41685 11.45 8.42V8.42ZM8.14 21.89C8.14 20.89 7.85 20.3 6.84 20.45C6.98 19.8 5.33 19.22 7.42 18.5L9.86 17.71C7.99 17.5 7.86 16.85 9.43 15.91L10.08 15.55C9.43 15.33 9.58 14.9 10.08 14.55C10.73 13.76 11.23 13.33 11.66 13.33C11.9851 13.9431 12.0875 14.6499 11.95 15.33C12.02 15.91 11.81 16.33 11.16 15.98L11.38 16.7C11.81 18.5 11.3 18.86 9.86 17.7L11 20C11.93 21.95 10.35 21.16 10 21.81C9.42 20.94 8.77 21.16 8.13 21.88L8.14 21.89ZM11.45 15.89C11.3 15.89 11.23 15.75 11.23 15.6C11.23 15.45 11.3 15.31 11.45 15.31C11.4888 15.307 11.5279 15.3124 11.5644 15.326C11.601 15.3395 11.6342 15.3607 11.6617 15.3883C11.6893 15.4158 11.7105 15.449 11.724 15.4856C11.7376 15.5221 11.743 15.5612 11.74 15.6C11.743 15.6388 11.7376 15.6779 11.724 15.7144C11.7105 15.751 11.6893 15.7842 11.6617 15.8117C11.6342 15.8393 11.601 15.8605 11.5644 15.874C11.5279 15.8876 11.4888 15.893 11.45 15.89V15.89ZM12.82 8.4C12.8529 8.39582 12.8862 8.39821 12.9182 8.40703C12.9501 8.41586 12.98 8.43095 13.006 8.45142C13.0321 8.47189 13.0538 8.49733 13.0699 8.52628C13.0861 8.55522 13.0963 8.58707 13.1 8.62C13.1079 8.66189 13.1064 8.70501 13.0958 8.74627C13.0851 8.78754 13.0654 8.82595 13.0382 8.85876C13.011 8.89156 12.9769 8.91797 12.9383 8.9361C12.8997 8.95422 12.8576 8.96362 12.815 8.96362C12.7724 8.96362 12.7303 8.95422 12.6917 8.9361C12.6531 8.91797 12.619 8.89156 12.5918 8.85876C12.5646 8.82595 12.5449 8.78754 12.5342 8.74627C12.5236 8.70501 12.5221 8.66189 12.53 8.62C12.53 8.48 12.67 8.4 12.82 8.4V8.4ZM12.82 15.89C12.7439 15.8875 12.6716 15.8561 12.6177 15.8023C12.5639 15.7484 12.5325 15.6761 12.53 15.6C12.5221 15.5581 12.5236 15.515 12.5342 15.4737C12.5449 15.4325 12.5646 15.3941 12.5918 15.3612C12.619 15.3284 12.6531 15.302 12.6917 15.2839C12.7303 15.2658 12.7724 15.2564 12.815 15.2564C12.8576 15.2564 12.8997 15.2658 12.9383 15.2839C12.9769 15.302 13.011 15.3284 13.0382 15.3612C13.0654 15.3941 13.0851 15.4325 13.0958 15.4737C13.1064 15.515 13.1079 15.5581 13.1 15.6C13.0977 15.6745 13.0677 15.7454 13.016 15.799C12.9642 15.8526 12.8944 15.8851 12.82 15.89V15.89ZM14.33 9C14.3642 9.0665 14.3821 9.14021 14.3821 9.215C14.3821 9.28979 14.3642 9.3635 14.33 9.43C14.2764 9.46486 14.2139 9.48341 14.15 9.48341C14.0861 9.48341 14.0236 9.46486 13.97 9.43C13.9365 9.4038 13.9099 9.36977 13.8926 9.33089C13.8753 9.29201 13.8677 9.24948 13.8707 9.20703C13.8737 9.16457 13.887 9.12349 13.9096 9.0874C13.9321 9.0513 13.9632 9.02129 14 9C14.0536 8.96514 14.1161 8.94659 14.18 8.94659C14.2439 8.94659 14.3064 8.96514 14.36 9H14.33ZM2.38 16.2C3.1 15.55 3.38 14.9 2.45 14.25C3.1 13.97 2.3 12.31 4.32 13.32L6.55 14.47L5.76 16.85C5.04 18.93 4.46 17.28 3.82 17.5C3.96 16.42 3.38 16.13 2.38 16.2V16.2ZM9 14.33C8.96579 14.2635 8.94794 14.1898 8.94794 14.115C8.94794 14.0402 8.96579 13.9665 9 13.9C9.06502 13.8613 9.13931 13.8408 9.215 13.8408C9.29069 13.8408 9.36498 13.8613 9.43 13.9C9.46421 13.9665 9.48206 14.0402 9.48206 14.115C9.48206 14.1898 9.46421 14.2635 9.43 14.33C9.3635 14.3642 9.28979 14.3821 9.215 14.3821C9.14021 14.3821 9.0665 14.3642 9 14.33V14.33ZM6.55 14.47C5.4 12.96 5.76 12.47 7.55 12.89L8.27 13.1C7.98 12.46 8.34 12.24 8.92 12.38C9.92 12.24 10.65 12.31 10.92 12.6C10.92 13.03 10.49 13.6 9.7 14.25C9.41 14.76 8.91 14.9 8.7 14.18L8.41 14.83C7.41 16.42 6.76 16.27 6.54 14.47H6.55ZM20.45 6.77C20.3 7.85 20.95 8.14 21.89 8.06C21.17 8.78 20.95 9.43 21.82 10.01C21.24 10.37 21.96 11.95 20.01 11.01L17.71 9.86C17.5 7.99 16.92 7.86 15.91 9.43L15.55 10.08C15.33 9.43 14.9 9.58 14.55 10.08C13.9598 10.4353 13.5244 10.9991 13.33 11.66C13.9437 11.9873 14.6598 12.066 15.33 11.88C15.91 12.02 16.33 11.81 15.98 11.16L16.7 11.38C18.5 11.81 18.86 11.3 17.7 9.86L18.49 7.42C19.21 5.33 19.79 6.98 20.44 6.77H20.45ZM15.26 9.93C15.2951 9.95496 15.3237 9.98796 15.3434 10.0262C15.3632 10.0645 15.3735 10.1069 15.3735 10.15C15.3735 10.1931 15.3632 10.2355 15.3434 10.2738C15.3237 10.312 15.2951 10.345 15.26 10.37C15.2064 10.4049 15.1439 10.4234 15.08 10.4234C15.0161 10.4234 14.9536 10.4049 14.9 10.37C14.8667 10.3438 14.8398 10.3104 14.8213 10.2723C14.8028 10.2342 14.7932 10.1924 14.7932 10.15C14.7932 10.1076 14.8028 10.0658 14.8213 10.0277C14.8398 9.98962 14.8667 9.9562 14.9 9.93C14.9536 9.89514 15.0161 9.87659 15.08 9.87659C15.1439 9.87659 15.2064 9.89514 15.26 9.93V9.93ZM10 15.26C9.85 15.12 9.85 14.98 9.93 14.9C9.95519 14.8668 9.9877 14.84 10.025 14.8215C10.0623 14.803 10.1034 14.7933 10.145 14.7933C10.1866 14.7933 10.2277 14.803 10.265 14.8215C10.3023 14.84 10.3348 14.8668 10.36 14.9C10.3949 14.9536 10.4134 15.0161 10.4134 15.08C10.4134 15.1439 10.3949 15.2064 10.36 15.26C10.3064 15.2949 10.2439 15.3134 10.18 15.3134C10.1161 15.3134 10.0536 15.2949 10 15.26ZM15.9 11.45C15.8953 11.5254 15.8632 11.5964 15.8098 11.6498C15.7564 11.7032 15.6854 11.7353 15.61 11.74C15.5354 11.7333 15.4654 11.7006 15.4124 11.6476C15.3594 11.5946 15.3267 11.5246 15.32 11.45C15.3247 11.3746 15.3568 11.3036 15.4102 11.2502C15.4636 11.1968 15.5346 11.1647 15.61 11.16C15.6861 11.1625 15.7584 11.1939 15.8123 11.2477C15.8661 11.3016 15.8975 11.3739 15.9 11.45V11.45ZM8.41 11.45C8.41 11.3 8.49 11.16 8.63 11.16C8.66925 11.1551 8.70908 11.1593 8.74648 11.1721C8.78388 11.185 8.81786 11.2062 8.84582 11.2342C8.87379 11.2621 8.895 11.2961 8.90786 11.3335C8.92071 11.3709 8.92486 11.4108 8.92 11.45C8.923 11.4888 8.91756 11.5279 8.90405 11.5644C8.89054 11.601 8.86927 11.6342 8.84172 11.6617C8.81417 11.6893 8.78098 11.7105 8.74443 11.724C8.70789 11.7376 8.66885 11.743 8.63 11.74C8.49 11.74 8.41 11.59 8.41 11.45ZM15.9 12.82C15.8951 12.8944 15.8626 12.9642 15.809 13.016C15.7554 13.0677 15.6845 13.0977 15.61 13.1C15.5681 13.1079 15.525 13.1064 15.4837 13.0958C15.4425 13.0851 15.4041 13.0654 15.3712 13.0382C15.3384 13.011 15.312 12.9769 15.2939 12.9383C15.2758 12.8997 15.2664 12.8576 15.2664 12.815C15.2664 12.7724 15.2758 12.7303 15.2939 12.6917C15.312 12.6531 15.3384 12.619 15.3712 12.5918C15.4041 12.5646 15.4425 12.5449 15.4837 12.5342C15.525 12.5236 15.5681 12.5221 15.61 12.53C15.6861 12.5325 15.7584 12.5639 15.8123 12.6177C15.8661 12.6716 15.8975 12.7439 15.9 12.82V12.82ZM8.41 12.82C8.41 12.67 8.49 12.53 8.63 12.53C8.66925 12.5251 8.70908 12.5293 8.74648 12.5421C8.78388 12.555 8.81786 12.5762 8.84582 12.6042C8.87379 12.6321 8.895 12.6661 8.90786 12.7035C8.92071 12.7409 8.92486 12.7808 8.92 12.82C8.92324 12.8585 8.91788 12.8972 8.90431 12.9333C8.89073 12.9694 8.86928 13.0021 8.84151 13.0289C8.81375 13.0557 8.78036 13.076 8.74377 13.0883C8.70719 13.1006 8.66832 13.1046 8.63 13.1C8.56532 13.0901 8.50709 13.0552 8.46783 13.0029C8.42857 12.9505 8.41139 12.8849 8.42 12.82H8.41Z" fill="white"/>
</g>
<defs>
<clipPath id="clip0">
<rect width="24.26" height="24.26" fill="white"/>
</clipPath>
</defs>
</svg>
