<svg width="25" height="25" viewBox="0 0 25 25" fill="none" xmlns="http://www.w3.org/2000/svg">
<path fill-rule="evenodd" clip-rule="evenodd" d="M20.989 5.2283C20.2423 6.08528 19.8023 4.56018 20.7772 4.74904C20.7226 4.59948 20.5731 4.55253 20.4388 4.49031C19.6615 4.49031 19.5436 5.02415 19.6222 5.62131C19.834 5.83419 19.6615 6.78507 19.6058 7.00559C19.1418 7.94009 18.6549 7.93245 17.822 8.3331C17.2761 8.78179 17.2641 9.33965 17.8766 9.61476C17.9087 9.61341 17.9406 9.60827 17.9715 9.59947C17.5545 9.27196 17.9399 8.67153 18.4825 9.03288C18.7728 9.6224 18.2073 9.73266 17.822 9.70864C16.941 9.33201 17.1222 8.31017 17.7903 7.7283C18.1833 7.50013 18.5611 7.30362 18.8755 6.83201C19.2685 5.84184 18.6571 4.76542 20.1408 4.36367C20.7226 4.36367 20.9584 4.69118 20.989 5.2283Z" fill="#434343"/>
<path fill-rule="evenodd" clip-rule="evenodd" d="M17.5306 6.69868C17.3428 7.23252 17.0044 7.49235 16.5481 7.23252C16.3603 6.91811 16.4782 6.46833 17.0044 6.61243C17.2086 6.81658 17.2009 6.80894 17.2162 7.07531C17.4837 6.76964 17.452 6.58841 17.2086 6.18776C16.6038 5.75108 16.1321 5.94431 15.7315 6.48579C15.3221 7.72051 16.2501 7.87007 16.6747 8.76527C16.8396 9.44213 16.6747 9.99999 16.0459 10.2434C15.5819 10.2194 15.2599 10.1889 15.2599 9.64628C15.3854 9.33187 15.8177 9.26855 16.0241 9.62226C16.0241 9.96069 15.9531 10.0393 15.7173 10.1179C16.0088 10.2587 16.2632 10.0709 16.4411 9.77946C16.6289 9.0251 16.0044 8.71833 15.4662 8.34169C14.9389 7.7751 14.8843 6.98907 13.9651 6.81331C13.1791 6.81331 12.6987 7.07204 12.5579 7.82641C12.6125 8.38536 12.6758 8.69977 13.2806 8.85698C13.7446 8.85698 14.0197 8.75435 14.0666 8.21178C14.0518 8.21801 14.0357 8.22062 14.0197 8.21942C13.7839 8.80894 12.8723 8.07859 13.5721 7.68558C14.2632 7.68558 14.2162 8.3144 13.988 8.73907C13.2413 9.39409 12.4476 9.06658 12.0623 8.29038C11.9444 7.76418 11.9214 7.44213 12.1966 6.88317C12.8952 5.98798 13.9258 5.96396 15.0492 6.26309C15.0749 6.25351 15.1011 6.24549 15.1278 6.23907C15.5284 5.71287 15.7828 5.55566 16.511 5.51636C17.1562 5.68885 17.4782 6.06221 17.5328 6.70304L17.5306 6.69868Z" fill="#434343"/>
<path fill-rule="evenodd" clip-rule="evenodd" d="M11.7773 7.13105C11.5491 8.30245 10.7478 8.13651 9.82751 8.33192C9.06332 8.33192 8.56987 8.11358 8.05131 7.59393C7.60372 7.01969 7.34389 6.28389 6.73145 5.81664C6.83297 5.81664 7.06878 5.89524 7.38647 5.95856C8.06332 5.99022 8.77839 5.93454 9.49345 6.20965C10.083 6.62668 10.476 6.98039 10.5786 7.68018C11.1834 7.77406 11.6943 7.5459 11.6397 6.79917C11.4738 6.56336 11.4738 6.56336 11.4039 6.52406V6.85157C10.8766 7.47166 10.3122 6.66271 10.9159 6.31664C11.5295 6.31664 11.6943 6.59175 11.7729 7.13432L11.7773 7.13105Z" fill="#434343"/>
<path fill-rule="evenodd" clip-rule="evenodd" d="M10.3778 15.9497C9.92251 16.7521 9.23802 16.7597 8.52186 16.3427C8.10592 15.9966 7.81444 15.6353 7.28824 15.4694C5.48038 15.5632 5.94435 17.7019 7.11465 17.1746C7.14073 17.1507 7.16449 17.1244 7.18562 17.096C7.11465 17.0414 6.92688 17.0654 6.84828 17.0174C6.64304 16.6899 6.5961 16.4202 7.10701 16.31C7.67361 16.4366 7.44544 16.9781 7.17797 17.2456C6.3319 17.6713 5.82754 17.0665 5.63867 16.2958C5.69326 15.7379 5.80352 15.3678 6.36902 14.9857C6.37775 14.8908 6.37775 14.8908 6.22055 14.1757C6.22055 12.9257 6.44762 11.834 8.03605 11.834C8.82208 12.0141 9.19872 12.3995 9.19872 13.1615C8.98693 13.9563 8.56989 14.2073 7.87885 13.8296C7.7926 13.6331 7.68998 13.4606 7.93343 13.2401C8.52295 13.0043 8.80679 13.7041 8.26094 13.917C8.77186 13.917 8.95963 13.775 8.95963 13.1462C8.67688 12.2892 7.78933 12.227 7.23038 12.7849C6.70417 13.4846 6.8854 14.144 7.43562 14.6942C7.67142 14.8209 7.91487 14.9388 8.15832 15.0567C8.71946 15.5883 9.21509 16.8613 10.1529 16.1386C10.1922 16.0447 10.3494 15.8001 10.262 15.6277C9.74348 16.3918 9.13103 15.3602 9.75112 15.132C10.297 15.1713 10.3494 15.4388 10.3799 15.9497H10.3778Z" fill="#434343"/>
<path fill-rule="evenodd" clip-rule="evenodd" d="M9.8515 17.9617C9.74233 18.4104 9.58403 18.442 9.26198 18.442C8.73359 18.1222 9.19102 17.358 9.72595 17.8132C9.72595 17.2466 9.05783 17.2237 8.70412 17.4202C8.51281 17.5834 8.36879 17.7949 8.28709 18.0327C8.00434 19.0316 7.4301 19.5185 6.47923 19.5971C5.77944 19.5337 5.1277 19.2434 4.67137 19.8482C4.5622 20.2259 4.55346 20.3678 4.82857 20.6429C4.84628 20.6331 4.86493 20.625 4.88425 20.6189C4.71831 20.2914 5.08075 19.9191 5.46503 20.1473C5.79254 20.7368 5.41809 20.965 4.88425 20.7685C4.66591 20.6265 4.60914 20.572 4.51416 20.3121C4.51416 19.5108 4.77399 19.1407 5.62224 18.9289C6.32202 18.9137 6.73141 18.9923 7.33621 18.442C7.51895 18.2025 7.67937 17.9467 7.81547 17.6779C8.05892 17.4027 8.34276 17.1593 8.82202 17.096C9.41154 17.1276 9.80455 17.3318 9.8515 17.9606V17.9617Z" fill="#434343"/>
<path fill-rule="evenodd" clip-rule="evenodd" d="M8.46077 9.78716C8.29484 10.4247 8.32649 10.8647 7.9575 11.3286C7.32104 11.8745 6.36907 11.7129 6.45641 10.7621C6.49472 10.6829 6.5582 10.6187 6.63691 10.5795C6.71562 10.5403 6.80512 10.5283 6.89137 10.5454C6.97763 10.5625 7.05578 10.6077 7.11358 10.674C7.17138 10.7403 7.20556 10.8238 7.21077 10.9116C7.1016 11.2577 6.92802 11.3909 6.64418 11.226C6.63844 11.2436 6.63585 11.2621 6.63654 11.2806C7.05357 11.8003 7.60379 11.499 7.81558 10.904V10.4869C7.76863 10.4476 7.44658 10.3614 7.21842 10.2686C6.03938 9.57646 6.14964 8.67253 6.11034 7.41489C6.09396 7.28935 5.94549 6.80135 5.97606 6.64415C6.46405 7.20529 7.16383 7.54699 7.77628 7.96948C8.05903 8.33083 8.29484 8.6376 8.42147 9.06991C8.42911 9.31336 8.4444 9.54917 8.46077 9.78498V9.78716Z" fill="#434343"/>
</svg>
