<svg width="25" height="25" viewBox="0 0 25 25" fill="none" xmlns="http://www.w3.org/2000/svg">
<path fill-rule="evenodd" clip-rule="evenodd" d="M19.7719 20.9891C18.9149 20.2424 20.4401 19.8024 20.2512 20.7773C20.4008 20.7227 20.4477 20.5731 20.5099 20.4389C20.5099 19.6616 19.9761 19.5437 19.3789 19.6223C19.166 19.8341 18.2152 19.6616 17.9946 19.6059C17.0601 19.1419 17.0678 18.655 16.6671 17.8221C16.2184 17.2762 15.6606 17.2642 15.3855 17.8766C15.3868 17.9088 15.392 17.9407 15.4008 17.9716C15.7283 17.5546 16.3287 17.94 15.9673 18.4825C15.3778 18.7729 15.2676 18.2074 15.2916 17.8221C15.6682 16.941 16.6901 17.1223 17.2719 17.7904C17.5001 18.1834 17.6966 18.5611 18.1682 18.8755C19.1584 19.2686 20.2348 18.6572 20.6366 20.1408C20.6366 20.7227 20.309 20.9585 19.7719 20.9891Z" fill="#434343"/>
<path fill-rule="evenodd" clip-rule="evenodd" d="M18.3011 17.5306C17.7673 17.3428 17.5074 17.0044 17.7673 16.548C18.0817 16.3603 18.5315 16.4782 18.3874 17.0044C18.1832 17.2085 18.1908 17.2009 17.9245 17.2162C18.2301 17.4836 18.4114 17.452 18.812 17.2085C19.2487 16.6037 19.0555 16.1321 18.514 15.7314C17.2793 15.3221 17.1297 16.25 16.2345 16.6747C15.5577 16.8395 14.9998 16.6747 14.7563 16.0459C14.7804 15.5819 14.8109 15.2598 15.3535 15.2598C15.6679 15.3854 15.7312 15.8177 15.3775 16.024C15.0391 16.024 14.9605 15.9531 14.8819 15.7173C14.7411 16.0087 14.9288 16.2631 15.2203 16.4411C15.9747 16.6288 16.2815 16.0044 16.6581 15.4662C17.2247 14.9389 18.0107 14.8843 18.1865 13.9651C18.1865 13.179 17.9277 12.6987 17.1734 12.5579C16.6144 12.6125 16.3 12.6758 16.1428 13.2806C16.1428 13.7445 16.2454 14.0197 16.788 14.0666C16.7818 14.0518 16.7792 14.0357 16.7804 14.0197C16.1908 13.7838 16.9212 12.8723 17.3142 13.5721C17.3142 14.2631 16.6854 14.2162 16.2607 13.988C15.6057 13.2413 15.9332 12.4476 16.7094 12.0622C17.2356 11.9443 17.5577 11.9214 18.1166 12.1965C19.0118 12.8952 19.0358 13.9258 18.7367 15.0491C18.7463 15.0748 18.7543 15.1011 18.7607 15.1277C19.2869 15.5284 19.4441 15.7828 19.4834 16.5109C19.3109 17.1561 18.9376 17.4782 18.2967 17.5328L18.3011 17.5306Z" fill="#434343"/>
<path fill-rule="evenodd" clip-rule="evenodd" d="M17.8688 11.7773C16.6974 11.5491 16.8634 10.7478 16.668 9.82751C16.668 9.06332 16.8863 8.56987 17.406 8.05131C17.9802 7.60372 18.716 7.34389 19.1833 6.73145C19.1833 6.83297 19.1047 7.06878 19.0413 7.38647C19.0097 8.06332 19.0654 8.77839 18.7902 9.49345C18.3732 10.083 18.0195 10.476 17.3197 10.5786C17.2258 11.1834 17.454 11.6943 18.2007 11.6397C18.4365 11.4738 18.4365 11.4738 18.4758 11.4039H18.1483C17.5282 10.8766 18.3372 10.3122 18.6833 10.9159C18.6833 11.5295 18.4081 11.6943 17.8656 11.7729L17.8688 11.7773Z" fill="#434343"/>
<path fill-rule="evenodd" clip-rule="evenodd" d="M9.05037 10.3777C8.24797 9.9225 8.24033 9.238 8.65736 8.52184C9.00343 8.10591 9.36478 7.81442 9.53072 7.28822C9.43684 5.48036 7.29819 5.94433 7.82548 7.11464C7.84939 7.14072 7.87571 7.16448 7.90409 7.1856C7.95867 7.11464 7.93465 6.92687 7.98269 6.84826C8.3102 6.64302 8.57985 6.59608 8.69011 7.107C8.56347 7.67359 8.02199 7.44543 7.75452 7.17796C7.32876 6.33189 7.93356 5.82752 8.7043 5.63866C9.26216 5.69324 9.63225 5.8035 10.0143 6.36901C10.1093 6.37774 10.1093 6.37774 10.8244 6.22053C12.0744 6.22053 13.1661 6.44761 13.1661 8.03604C12.986 8.82206 12.6006 9.1987 11.8386 9.1987C11.0438 8.98691 10.7927 8.56988 11.1705 7.87883C11.367 7.79259 11.5395 7.68997 11.76 7.93342C11.9958 8.52294 11.296 8.80678 11.0831 8.26093C11.0831 8.77184 11.225 8.95962 11.8539 8.95962C12.7109 8.67687 12.7731 7.78931 12.2152 7.23036C11.5154 6.70416 10.856 6.88538 10.3058 7.4356C10.1792 7.67141 10.0613 7.91486 9.94339 8.15831C9.41173 8.71944 8.1388 9.21508 8.86151 10.1528C8.95539 10.1922 9.19994 10.3494 9.37243 10.262C8.60823 9.74346 9.63989 9.13102 9.86806 9.7511C9.82876 10.297 9.56129 10.3494 9.05037 10.3799V10.3777Z" fill="#434343"/>
<path fill-rule="evenodd" clip-rule="evenodd" d="M7.03837 9.85153C6.58968 9.74236 6.55802 9.58406 6.55802 9.26201C6.87789 8.73362 7.64208 9.19105 7.18684 9.72598C7.75343 9.72598 7.77636 9.05786 7.57985 8.70415C7.4167 8.51284 7.20519 8.36882 6.96741 8.28712C5.9685 8.00437 5.4816 7.43013 5.403 6.47926C5.46632 5.77947 5.75671 5.12773 5.1519 4.6714C4.77418 4.56223 4.63225 4.55349 4.35715 4.8286C4.367 4.84631 4.37504 4.86496 4.38116 4.88428C4.70867 4.71834 5.08094 5.08078 4.85278 5.46506C4.26326 5.79258 4.03509 5.41812 4.2316 4.88428C4.37352 4.66594 4.42811 4.60917 4.68793 4.51419C5.48924 4.51419 5.85933 4.77402 6.07112 5.62227C6.0864 6.32205 6.0078 6.73144 6.55802 7.33624C6.79759 7.51898 7.05339 7.6794 7.32221 7.8155C7.59732 8.05895 7.84077 8.34279 7.90409 8.82205C7.87243 9.41157 7.66828 9.80458 7.03946 9.85153H7.03837Z" fill="#434343"/>
<path fill-rule="evenodd" clip-rule="evenodd" d="M15.2127 8.4607C14.5751 8.29476 14.1352 8.32642 13.6712 7.95742C13.1253 7.32096 13.2869 6.36899 14.2378 6.45633C14.3169 6.49464 14.3812 6.55812 14.4204 6.63684C14.4596 6.71555 14.4716 6.80504 14.4545 6.8913C14.4374 6.97756 14.3921 7.0557 14.3259 7.1135C14.2596 7.1713 14.176 7.20548 14.0882 7.2107C13.7422 7.10153 13.609 6.92795 13.7738 6.6441C13.7562 6.63836 13.7377 6.63577 13.7192 6.63646C13.1996 7.05349 13.5009 7.60371 14.0959 7.8155H14.5129C14.5522 7.76856 14.6384 7.44651 14.7312 7.21834C15.4234 6.0393 16.3273 6.14956 17.585 6.11026C17.7105 6.09388 18.1985 5.94541 18.3557 5.97598C17.7946 6.46397 17.4529 7.16375 17.0304 7.7762C16.669 8.05895 16.3622 8.29476 15.9299 8.4214C15.6865 8.42904 15.4507 8.44432 15.2149 8.4607H15.2127Z" fill="#434343"/>
</svg>
